<svg width="290" height="237" viewBox="0 0 290 237" fill="none" xmlns="http://www.w3.org/2000/svg">
<rect x="1" y="1" width="288" height="235" rx="6" fill="white"/>
<g clip-path="url(#clip0_7_1409)">
<path d="M31 54.3944C59.0344 54.3944 47.2161 98.9978 69.0293 98.9978C90.8424 98.9978 83.3926 38.0064 107.059 38.0064C130.724 38.0064 119.335 63.9164 145.088 63.9164C170.84 63.9164 166.628 32.0024 183.117 32.0024C199.606 32.0024 194.467 74.1001 221.146 74.1001C247.825 74.1001 242.696 39.8607 259.176 39.8607" stroke="#E5E5E5" stroke-width="2" stroke-miterlimit="10"/>
<path d="M31 78.7107C84.9235 78.7107 83.3634 98.9978 107 98.9978C130.637 98.9978 125.069 38.0063 145.029 38.0063C164.99 38.0063 151.972 88.8643 183.059 88.8643C214.145 88.8643 206.685 61.8717 221.088 61.8717C235.49 61.8717 234.525 93.4549 259.117 93.4549" stroke="#08B54F" stroke-width="2" stroke-miterlimit="10"/>
<path d="M183.605 92.8918C185.923 92.8918 187.767 90.9657 187.767 88.6336C187.767 86.3015 185.923 84.3755 183.605 84.3755C181.286 84.3755 179.442 86.3015 179.442 88.6336C179.442 90.9657 181.286 92.8918 183.605 92.8918Z" fill="#D9D9D9" stroke="#08B54F" stroke-width="1.5"/>
<path d="M106.571 41.7734C108.889 41.7734 110.734 39.8473 110.734 37.5152C110.734 35.1831 108.889 33.2571 106.571 33.2571C104.253 33.2571 102.408 35.1831 102.408 37.5152C102.408 39.8473 104.253 41.7734 106.571 41.7734Z" fill="#D9D9D9" stroke="#08B54F" stroke-width="1.5"/>
</g>
<rect x="46" y="130" width="28" height="8" rx="4" fill="#D9D9D9" fill-opacity="0.5"/>
<circle cx="36.5" cy="133.5" r="4.25" fill="#D9D9D9" stroke="#08B54F" stroke-width="1.5"/>
<rect x="31" y="143" width="43" height="8" rx="4" fill="#D9D9D9"/>
<rect x="138.5" y="130" width="28" height="8" rx="4" fill="#D9D9D9" fill-opacity="0.5"/>
<circle cx="129" cy="133.5" r="4.25" fill="#D9D9D9" stroke="#08B54F" stroke-width="1.5"/>
<rect x="123.5" y="143" width="43" height="8" rx="4" fill="#D9D9D9"/>
<rect x="231" y="130" width="28" height="8" rx="4" fill="#D9D9D9" fill-opacity="0.5"/>
<circle cx="221.5" cy="133.5" r="4.25" fill="#D9D9D9" stroke="#08B54F" stroke-width="1.5"/>
<rect x="216" y="143" width="43" height="8" rx="4" fill="#D9D9D9"/>
<path d="M31.9258 188V179.41H35.166C35.7363 179.41 36.1719 179.438 36.4727 179.492C36.8945 179.562 37.248 179.697 37.5332 179.896C37.8184 180.092 38.0469 180.367 38.2188 180.723C38.3945 181.078 38.4824 181.469 38.4824 181.895C38.4824 182.625 38.25 183.244 37.7852 183.752C37.3203 184.256 36.4805 184.508 35.2656 184.508H33.0625V188H31.9258ZM33.0625 183.494H35.2832C36.0176 183.494 36.5391 183.357 36.8477 183.084C37.1562 182.811 37.3105 182.426 37.3105 181.93C37.3105 181.57 37.2188 181.264 37.0352 181.01C36.8555 180.752 36.6172 180.582 36.3203 180.5C36.1289 180.449 35.7754 180.424 35.2598 180.424H33.0625V183.494ZM39.7715 188V179.41H40.8262V188H39.7715ZM46.7266 185.996L47.8164 186.131C47.6445 186.768 47.3262 187.262 46.8613 187.613C46.3965 187.965 45.8027 188.141 45.0801 188.141C44.1699 188.141 43.4473 187.861 42.9121 187.303C42.3809 186.74 42.1152 185.953 42.1152 184.941C42.1152 183.895 42.3848 183.082 42.9238 182.504C43.4629 181.926 44.1621 181.637 45.0215 181.637C45.8535 181.637 46.5332 181.92 47.0605 182.486C47.5879 183.053 47.8516 183.85 47.8516 184.877C47.8516 184.939 47.8496 185.033 47.8457 185.158H43.2051C43.2441 185.842 43.4375 186.365 43.7852 186.729C44.1328 187.092 44.5664 187.273 45.0859 187.273C45.4727 187.273 45.8027 187.172 46.0762 186.969C46.3496 186.766 46.5664 186.441 46.7266 185.996ZM43.2637 184.291H46.7383C46.6914 183.768 46.5586 183.375 46.3398 183.113C46.0039 182.707 45.5684 182.504 45.0332 182.504C44.5488 182.504 44.1406 182.666 43.8086 182.99C43.4805 183.314 43.2988 183.748 43.2637 184.291ZM53.207 187.232C52.8164 187.564 52.4395 187.799 52.0762 187.936C51.7168 188.072 51.3301 188.141 50.916 188.141C50.2324 188.141 49.707 187.975 49.3398 187.643C48.9727 187.307 48.7891 186.879 48.7891 186.359C48.7891 186.055 48.8574 185.777 48.9941 185.527C49.1348 185.273 49.3164 185.07 49.5391 184.918C49.7656 184.766 50.0195 184.65 50.3008 184.572C50.5078 184.518 50.8203 184.465 51.2383 184.414C52.0898 184.312 52.7168 184.191 53.1191 184.051C53.123 183.906 53.125 183.814 53.125 183.775C53.125 183.346 53.0254 183.043 52.8262 182.867C52.5566 182.629 52.1562 182.51 51.625 182.51C51.1289 182.51 50.7617 182.598 50.5234 182.773C50.2891 182.945 50.1152 183.252 50.002 183.693L48.9707 183.553C49.0645 183.111 49.2188 182.756 49.4336 182.486C49.6484 182.213 49.959 182.004 50.3652 181.859C50.7715 181.711 51.2422 181.637 51.7773 181.637C52.3086 181.637 52.7402 181.699 53.0723 181.824C53.4043 181.949 53.6484 182.107 53.8047 182.299C53.9609 182.486 54.0703 182.725 54.1328 183.014C54.168 183.193 54.1855 183.518 54.1855 183.986V185.393C54.1855 186.373 54.207 186.994 54.25 187.256C54.2969 187.514 54.3867 187.762 54.5195 188H53.418C53.3086 187.781 53.2383 187.525 53.207 187.232ZM53.1191 184.877C52.7363 185.033 52.1621 185.166 51.3965 185.275C50.9629 185.338 50.6562 185.408 50.4766 185.486C50.2969 185.564 50.1582 185.68 50.0605 185.832C49.9629 185.98 49.9141 186.146 49.9141 186.33C49.9141 186.611 50.0195 186.846 50.2305 187.033C50.4453 187.221 50.7578 187.314 51.168 187.314C51.5742 187.314 51.9355 187.227 52.252 187.051C52.5684 186.871 52.8008 186.627 52.9492 186.318C53.0625 186.08 53.1191 185.729 53.1191 185.264V184.877ZM55.4043 186.143L56.4473 185.979C56.5059 186.396 56.668 186.717 56.9336 186.939C57.2031 187.162 57.5781 187.273 58.0586 187.273C58.543 187.273 58.9023 187.176 59.1367 186.98C59.3711 186.781 59.4883 186.549 59.4883 186.283C59.4883 186.045 59.3848 185.857 59.1777 185.721C59.0332 185.627 58.6738 185.508 58.0996 185.363C57.3262 185.168 56.7891 185 56.4883 184.859C56.1914 184.715 55.9648 184.518 55.8086 184.268C55.6562 184.014 55.5801 183.734 55.5801 183.43C55.5801 183.152 55.6426 182.896 55.7676 182.662C55.8965 182.424 56.0703 182.227 56.2891 182.07C56.4531 181.949 56.6758 181.848 56.957 181.766C57.2422 181.68 57.5469 181.637 57.8711 181.637C58.3594 181.637 58.7871 181.707 59.1543 181.848C59.5254 181.988 59.7988 182.18 59.9746 182.422C60.1504 182.66 60.2715 182.98 60.3379 183.383L59.3066 183.523C59.2598 183.203 59.123 182.953 58.8965 182.773C58.6738 182.594 58.3574 182.504 57.9473 182.504C57.4629 182.504 57.1172 182.584 56.9102 182.744C56.7031 182.904 56.5996 183.092 56.5996 183.307C56.5996 183.443 56.6426 183.566 56.7285 183.676C56.8145 183.789 56.9492 183.883 57.1328 183.957C57.2383 183.996 57.5488 184.086 58.0645 184.227C58.8105 184.426 59.3301 184.59 59.623 184.719C59.9199 184.844 60.1523 185.027 60.3203 185.27C60.4883 185.512 60.5723 185.812 60.5723 186.172C60.5723 186.523 60.4688 186.855 60.2617 187.168C60.0586 187.477 59.7637 187.717 59.377 187.889C58.9902 188.057 58.5527 188.141 58.0645 188.141C57.2559 188.141 56.6387 187.973 56.2129 187.637C55.791 187.301 55.5215 186.803 55.4043 186.143ZM65.9043 188V187.086C65.4199 187.789 64.7617 188.141 63.9297 188.141C63.5625 188.141 63.2188 188.07 62.8984 187.93C62.582 187.789 62.3457 187.613 62.1895 187.402C62.0371 187.188 61.9297 186.926 61.8672 186.617C61.8242 186.41 61.8027 186.082 61.8027 185.633V181.777H62.8574V185.229C62.8574 185.779 62.8789 186.15 62.9219 186.342C62.9883 186.619 63.1289 186.838 63.3438 186.998C63.5586 187.154 63.8242 187.232 64.1406 187.232C64.457 187.232 64.7539 187.152 65.0312 186.992C65.3086 186.828 65.5039 186.607 65.6172 186.33C65.7344 186.049 65.793 185.643 65.793 185.111V181.777H66.8477V188H65.9043ZM68.4941 188V181.777H69.4434V182.721C69.6855 182.279 69.9082 181.988 70.1113 181.848C70.3184 181.707 70.5449 181.637 70.791 181.637C71.1465 181.637 71.5078 181.75 71.875 181.977L71.5117 182.955C71.2539 182.803 70.9961 182.727 70.7383 182.727C70.5078 182.727 70.3008 182.797 70.1172 182.938C69.9336 183.074 69.8027 183.266 69.7246 183.512C69.6074 183.887 69.5488 184.297 69.5488 184.742V188H68.4941ZM76.7617 185.996L77.8516 186.131C77.6797 186.768 77.3613 187.262 76.8965 187.613C76.4316 187.965 75.8379 188.141 75.1152 188.141C74.2051 188.141 73.4824 187.861 72.9473 187.303C72.416 186.74 72.1504 185.953 72.1504 184.941C72.1504 183.895 72.4199 183.082 72.959 182.504C73.498 181.926 74.1973 181.637 75.0566 181.637C75.8887 181.637 76.5684 181.92 77.0957 182.486C77.623 183.053 77.8867 183.85 77.8867 184.877C77.8867 184.939 77.8848 185.033 77.8809 185.158H73.2402C73.2793 185.842 73.4727 186.365 73.8203 186.729C74.168 187.092 74.6016 187.273 75.1211 187.273C75.5078 187.273 75.8379 187.172 76.1113 186.969C76.3848 186.766 76.6016 186.441 76.7617 185.996ZM73.2988 184.291H76.7734C76.7266 183.768 76.5938 183.375 76.375 183.113C76.0391 182.707 75.6035 182.504 75.0684 182.504C74.584 182.504 74.1758 182.666 73.8438 182.99C73.5156 183.314 73.334 183.748 73.2988 184.291ZM86.582 187.232C86.1914 187.564 85.8145 187.799 85.4512 187.936C85.0918 188.072 84.7051 188.141 84.291 188.141C83.6074 188.141 83.082 187.975 82.7148 187.643C82.3477 187.307 82.1641 186.879 82.1641 186.359C82.1641 186.055 82.2324 185.777 82.3691 185.527C82.5098 185.273 82.6914 185.07 82.9141 184.918C83.1406 184.766 83.3945 184.65 83.6758 184.572C83.8828 184.518 84.1953 184.465 84.6133 184.414C85.4648 184.312 86.0918 184.191 86.4941 184.051C86.498 183.906 86.5 183.814 86.5 183.775C86.5 183.346 86.4004 183.043 86.2012 182.867C85.9316 182.629 85.5312 182.51 85 182.51C84.5039 182.51 84.1367 182.598 83.8984 182.773C83.6641 182.945 83.4902 183.252 83.377 183.693L82.3457 183.553C82.4395 183.111 82.5938 182.756 82.8086 182.486C83.0234 182.213 83.334 182.004 83.7402 181.859C84.1465 181.711 84.6172 181.637 85.1523 181.637C85.6836 181.637 86.1152 181.699 86.4473 181.824C86.7793 181.949 87.0234 182.107 87.1797 182.299C87.3359 182.486 87.4453 182.725 87.5078 183.014C87.543 183.193 87.5605 183.518 87.5605 183.986V185.393C87.5605 186.373 87.582 186.994 87.625 187.256C87.6719 187.514 87.7617 187.762 87.8945 188H86.793C86.6836 187.781 86.6133 187.525 86.582 187.232ZM86.4941 184.877C86.1113 185.033 85.5371 185.166 84.7715 185.275C84.3379 185.338 84.0312 185.408 83.8516 185.486C83.6719 185.564 83.5332 185.68 83.4355 185.832C83.3379 185.98 83.2891 186.146 83.2891 186.33C83.2891 186.611 83.3945 186.846 83.6055 187.033C83.8203 187.221 84.1328 187.314 84.543 187.314C84.9492 187.314 85.3105 187.227 85.627 187.051C85.9434 186.871 86.1758 186.627 86.3242 186.318C86.4375 186.08 86.4941 185.729 86.4941 185.264V184.877ZM89.2012 188V181.777H90.1504V182.662C90.6074 181.979 91.2676 181.637 92.1309 181.637C92.5059 181.637 92.8496 181.705 93.1621 181.842C93.4785 181.975 93.7148 182.15 93.8711 182.369C94.0273 182.588 94.1367 182.848 94.1992 183.148C94.2383 183.344 94.2578 183.686 94.2578 184.174V188H93.2031V184.215C93.2031 183.785 93.1621 183.465 93.0801 183.254C92.998 183.039 92.8516 182.869 92.6406 182.744C92.4336 182.615 92.1895 182.551 91.9082 182.551C91.459 182.551 91.0703 182.693 90.7422 182.979C90.418 183.264 90.2559 183.805 90.2559 184.602V188H89.2012ZM99.918 188V187.215C99.5234 187.832 98.9434 188.141 98.1777 188.141C97.6816 188.141 97.2246 188.004 96.8066 187.73C96.3926 187.457 96.0703 187.076 95.8398 186.588C95.6133 186.096 95.5 185.531 95.5 184.895C95.5 184.273 95.6035 183.711 95.8105 183.207C96.0176 182.699 96.3281 182.311 96.7422 182.041C97.1562 181.771 97.6191 181.637 98.1309 181.637C98.5059 181.637 98.8398 181.717 99.1328 181.877C99.4258 182.033 99.6641 182.238 99.8477 182.492V179.41H100.896V188H99.918ZM96.584 184.895C96.584 185.691 96.752 186.287 97.0879 186.682C97.4238 187.076 97.8203 187.273 98.2773 187.273C98.7383 187.273 99.1289 187.086 99.4492 186.711C99.7734 186.332 99.9355 185.756 99.9355 184.982C99.9355 184.131 99.7715 183.506 99.4434 183.107C99.1152 182.709 98.7109 182.51 98.2305 182.51C97.7617 182.51 97.3691 182.701 97.0527 183.084C96.7402 183.467 96.584 184.07 96.584 184.895ZM105.479 186.143L106.521 185.979C106.58 186.396 106.742 186.717 107.008 186.939C107.277 187.162 107.652 187.273 108.133 187.273C108.617 187.273 108.977 187.176 109.211 186.98C109.445 186.781 109.562 186.549 109.562 186.283C109.562 186.045 109.459 185.857 109.252 185.721C109.107 185.627 108.748 185.508 108.174 185.363C107.4 185.168 106.863 185 106.562 184.859C106.266 184.715 106.039 184.518 105.883 184.268C105.73 184.014 105.654 183.734 105.654 183.43C105.654 183.152 105.717 182.896 105.842 182.662C105.971 182.424 106.145 182.227 106.363 182.07C106.527 181.949 106.75 181.848 107.031 181.766C107.316 181.68 107.621 181.637 107.945 181.637C108.434 181.637 108.861 181.707 109.229 181.848C109.6 181.988 109.873 182.18 110.049 182.422C110.225 182.66 110.346 182.98 110.412 183.383L109.381 183.523C109.334 183.203 109.197 182.953 108.971 182.773C108.748 182.594 108.432 182.504 108.021 182.504C107.537 182.504 107.191 182.584 106.984 182.744C106.777 182.904 106.674 183.092 106.674 183.307C106.674 183.443 106.717 183.566 106.803 183.676C106.889 183.789 107.023 183.883 107.207 183.957C107.312 183.996 107.623 184.086 108.139 184.227C108.885 184.426 109.404 184.59 109.697 184.719C109.994 184.844 110.227 185.027 110.395 185.27C110.562 185.512 110.646 185.812 110.646 186.172C110.646 186.523 110.543 186.855 110.336 187.168C110.133 187.477 109.838 187.717 109.451 187.889C109.064 188.057 108.627 188.141 108.139 188.141C107.33 188.141 106.713 187.973 106.287 187.637C105.865 187.301 105.596 186.803 105.479 186.143ZM111.508 184.889C111.508 183.736 111.828 182.883 112.469 182.328C113.004 181.867 113.656 181.637 114.426 181.637C115.281 181.637 115.98 181.918 116.523 182.48C117.066 183.039 117.338 183.812 117.338 184.801C117.338 185.602 117.217 186.232 116.975 186.693C116.736 187.15 116.387 187.506 115.926 187.76C115.469 188.014 114.969 188.141 114.426 188.141C113.555 188.141 112.85 187.861 112.311 187.303C111.775 186.744 111.508 185.939 111.508 184.889ZM112.592 184.889C112.592 185.686 112.766 186.283 113.113 186.682C113.461 187.076 113.898 187.273 114.426 187.273C114.949 187.273 115.385 187.074 115.732 186.676C116.08 186.277 116.254 185.67 116.254 184.854C116.254 184.084 116.078 183.502 115.727 183.107C115.379 182.709 114.945 182.51 114.426 182.51C113.898 182.51 113.461 182.707 113.113 183.102C112.766 183.496 112.592 184.092 112.592 184.889ZM121.908 188V181.777H122.857V182.721C123.1 182.279 123.322 181.988 123.525 181.848C123.732 181.707 123.959 181.637 124.205 181.637C124.561 181.637 124.922 181.75 125.289 181.977L124.926 182.955C124.668 182.803 124.41 182.727 124.152 182.727C123.922 182.727 123.715 182.797 123.531 182.938C123.348 183.074 123.217 183.266 123.139 183.512C123.021 183.887 122.963 184.297 122.963 184.742V188H121.908ZM130.176 185.996L131.266 186.131C131.094 186.768 130.775 187.262 130.311 187.613C129.846 187.965 129.252 188.141 128.529 188.141C127.619 188.141 126.896 187.861 126.361 187.303C125.83 186.74 125.564 185.953 125.564 184.941C125.564 183.895 125.834 183.082 126.373 182.504C126.912 181.926 127.611 181.637 128.471 181.637C129.303 181.637 129.982 181.92 130.51 182.486C131.037 183.053 131.301 183.85 131.301 184.877C131.301 184.939 131.299 185.033 131.295 185.158H126.654C126.693 185.842 126.887 186.365 127.234 186.729C127.582 187.092 128.016 187.273 128.535 187.273C128.922 187.273 129.252 187.172 129.525 186.969C129.799 186.766 130.016 186.441 130.176 185.996ZM126.713 184.291H130.188C130.141 183.768 130.008 183.375 129.789 183.113C129.453 182.707 129.018 182.504 128.482 182.504C127.998 182.504 127.59 182.666 127.258 182.99C126.93 183.314 126.748 183.748 126.713 184.291ZM136.656 187.232C136.266 187.564 135.889 187.799 135.525 187.936C135.166 188.072 134.779 188.141 134.365 188.141C133.682 188.141 133.156 187.975 132.789 187.643C132.422 187.307 132.238 186.879 132.238 186.359C132.238 186.055 132.307 185.777 132.443 185.527C132.584 185.273 132.766 185.07 132.988 184.918C133.215 184.766 133.469 184.65 133.75 184.572C133.957 184.518 134.27 184.465 134.688 184.414C135.539 184.312 136.166 184.191 136.568 184.051C136.572 183.906 136.574 183.814 136.574 183.775C136.574 183.346 136.475 183.043 136.275 182.867C136.006 182.629 135.605 182.51 135.074 182.51C134.578 182.51 134.211 182.598 133.973 182.773C133.738 182.945 133.564 183.252 133.451 183.693L132.42 183.553C132.514 183.111 132.668 182.756 132.883 182.486C133.098 182.213 133.408 182.004 133.814 181.859C134.221 181.711 134.691 181.637 135.227 181.637C135.758 181.637 136.189 181.699 136.521 181.824C136.854 181.949 137.098 182.107 137.254 182.299C137.41 182.486 137.52 182.725 137.582 183.014C137.617 183.193 137.635 183.518 137.635 183.986V185.393C137.635 186.373 137.656 186.994 137.699 187.256C137.746 187.514 137.836 187.762 137.969 188H136.867C136.758 187.781 136.688 187.525 136.656 187.232ZM136.568 184.877C136.186 185.033 135.611 185.166 134.846 185.275C134.412 185.338 134.105 185.408 133.926 185.486C133.746 185.564 133.607 185.68 133.51 185.832C133.412 185.98 133.363 186.146 133.363 186.33C133.363 186.611 133.469 186.846 133.68 187.033C133.895 187.221 134.207 187.314 134.617 187.314C135.023 187.314 135.385 187.227 135.701 187.051C136.018 186.871 136.25 186.627 136.398 186.318C136.512 186.08 136.568 185.729 136.568 185.264V184.877ZM143.312 188V187.215C142.918 187.832 142.338 188.141 141.572 188.141C141.076 188.141 140.619 188.004 140.201 187.73C139.787 187.457 139.465 187.076 139.234 186.588C139.008 186.096 138.895 185.531 138.895 184.895C138.895 184.273 138.998 183.711 139.205 183.207C139.412 182.699 139.723 182.311 140.137 182.041C140.551 181.771 141.014 181.637 141.525 181.637C141.9 181.637 142.234 181.717 142.527 181.877C142.82 182.033 143.059 182.238 143.242 182.492V179.41H144.291V188H143.312ZM139.979 184.895C139.979 185.691 140.146 186.287 140.482 186.682C140.818 187.076 141.215 187.273 141.672 187.273C142.133 187.273 142.523 187.086 142.844 186.711C143.168 186.332 143.33 185.756 143.33 184.982C143.33 184.131 143.166 183.506 142.838 183.107C142.51 182.709 142.105 182.51 141.625 182.51C141.156 182.51 140.764 182.701 140.447 183.084C140.135 183.467 139.979 184.07 139.979 184.895ZM151.598 187.057L151.75 187.988C151.453 188.051 151.188 188.082 150.953 188.082C150.57 188.082 150.273 188.021 150.062 187.9C149.852 187.779 149.703 187.621 149.617 187.426C149.531 187.227 149.488 186.811 149.488 186.178V182.598H148.715V181.777H149.488V180.236L150.537 179.604V181.777H151.598V182.598H150.537V186.236C150.537 186.537 150.555 186.73 150.59 186.816C150.629 186.902 150.689 186.971 150.771 187.021C150.857 187.072 150.979 187.098 151.135 187.098C151.252 187.098 151.406 187.084 151.598 187.057ZM152.635 188V179.41H153.689V182.492C154.182 181.922 154.803 181.637 155.553 181.637C156.014 181.637 156.414 181.729 156.754 181.912C157.094 182.092 157.336 182.342 157.48 182.662C157.629 182.982 157.703 183.447 157.703 184.057V188H156.648V184.057C156.648 183.529 156.533 183.146 156.303 182.908C156.076 182.666 155.754 182.545 155.336 182.545C155.023 182.545 154.729 182.627 154.451 182.791C154.178 182.951 153.982 183.17 153.865 183.447C153.748 183.725 153.689 184.107 153.689 184.596V188H152.635ZM163.574 185.996L164.664 186.131C164.492 186.768 164.174 187.262 163.709 187.613C163.244 187.965 162.65 188.141 161.928 188.141C161.018 188.141 160.295 187.861 159.76 187.303C159.229 186.74 158.963 185.953 158.963 184.941C158.963 183.895 159.232 183.082 159.771 182.504C160.311 181.926 161.01 181.637 161.869 181.637C162.701 181.637 163.381 181.92 163.908 182.486C164.436 183.053 164.699 183.85 164.699 184.877C164.699 184.939 164.697 185.033 164.693 185.158H160.053C160.092 185.842 160.285 186.365 160.633 186.729C160.98 187.092 161.414 187.273 161.934 187.273C162.32 187.273 162.65 187.172 162.924 186.969C163.197 186.766 163.414 186.441 163.574 185.996ZM160.111 184.291H163.586C163.539 183.768 163.406 183.375 163.188 183.113C162.852 182.707 162.416 182.504 161.881 182.504C161.396 182.504 160.988 182.666 160.656 182.99C160.328 183.314 160.146 183.748 160.111 184.291ZM170.482 188L168.578 181.777H169.668L170.658 185.369L171.027 186.705C171.043 186.639 171.15 186.211 171.35 185.422L172.34 181.777H173.424L174.355 185.387L174.666 186.576L175.023 185.375L176.09 181.777H177.115L175.17 188H174.074L173.084 184.273L172.844 183.213L171.584 188H170.482ZM182.066 187.232C181.676 187.564 181.299 187.799 180.936 187.936C180.576 188.072 180.189 188.141 179.775 188.141C179.092 188.141 178.566 187.975 178.199 187.643C177.832 187.307 177.648 186.879 177.648 186.359C177.648 186.055 177.717 185.777 177.854 185.527C177.994 185.273 178.176 185.07 178.398 184.918C178.625 184.766 178.879 184.65 179.16 184.572C179.367 184.518 179.68 184.465 180.098 184.414C180.949 184.312 181.576 184.191 181.979 184.051C181.982 183.906 181.984 183.814 181.984 183.775C181.984 183.346 181.885 183.043 181.686 182.867C181.416 182.629 181.016 182.51 180.484 182.51C179.988 182.51 179.621 182.598 179.383 182.773C179.148 182.945 178.975 183.252 178.861 183.693L177.83 183.553C177.924 183.111 178.078 182.756 178.293 182.486C178.508 182.213 178.818 182.004 179.225 181.859C179.631 181.711 180.102 181.637 180.637 181.637C181.168 181.637 181.6 181.699 181.932 181.824C182.264 181.949 182.508 182.107 182.664 182.299C182.82 182.486 182.93 182.725 182.992 183.014C183.027 183.193 183.045 183.518 183.045 183.986V185.393C183.045 186.373 183.066 186.994 183.109 187.256C183.156 187.514 183.246 187.762 183.379 188H182.277C182.168 187.781 182.098 187.525 182.066 187.232ZM181.979 184.877C181.596 185.033 181.021 185.166 180.256 185.275C179.822 185.338 179.516 185.408 179.336 185.486C179.156 185.564 179.018 185.68 178.92 185.832C178.822 185.98 178.773 186.146 178.773 186.33C178.773 186.611 178.879 186.846 179.09 187.033C179.305 187.221 179.617 187.314 180.027 187.314C180.434 187.314 180.795 187.227 181.111 187.051C181.428 186.871 181.66 186.627 181.809 186.318C181.922 186.08 181.979 185.729 181.979 185.264V184.877ZM184.264 186.143L185.307 185.979C185.365 186.396 185.527 186.717 185.793 186.939C186.062 187.162 186.438 187.273 186.918 187.273C187.402 187.273 187.762 187.176 187.996 186.98C188.23 186.781 188.348 186.549 188.348 186.283C188.348 186.045 188.244 185.857 188.037 185.721C187.893 185.627 187.533 185.508 186.959 185.363C186.186 185.168 185.648 185 185.348 184.859C185.051 184.715 184.824 184.518 184.668 184.268C184.516 184.014 184.439 183.734 184.439 183.43C184.439 183.152 184.502 182.896 184.627 182.662C184.756 182.424 184.93 182.227 185.148 182.07C185.312 181.949 185.535 181.848 185.816 181.766C186.102 181.68 186.406 181.637 186.73 181.637C187.219 181.637 187.646 181.707 188.014 181.848C188.385 181.988 188.658 182.18 188.834 182.422C189.01 182.66 189.131 182.98 189.197 183.383L188.166 183.523C188.119 183.203 187.982 182.953 187.756 182.773C187.533 182.594 187.217 182.504 186.807 182.504C186.322 182.504 185.977 182.584 185.77 182.744C185.562 182.904 185.459 183.092 185.459 183.307C185.459 183.443 185.502 183.566 185.588 183.676C185.674 183.789 185.809 183.883 185.992 183.957C186.098 183.996 186.408 184.086 186.924 184.227C187.67 184.426 188.189 184.59 188.482 184.719C188.779 184.844 189.012 185.027 189.18 185.27C189.348 185.512 189.432 185.812 189.432 186.172C189.432 186.523 189.328 186.855 189.121 187.168C188.918 187.477 188.623 187.717 188.236 187.889C187.85 188.057 187.412 188.141 186.924 188.141C186.115 188.141 185.498 187.973 185.072 187.637C184.65 187.301 184.381 186.803 184.264 186.143ZM194.025 188V179.41H195.08V182.492C195.572 181.922 196.193 181.637 196.943 181.637C197.404 181.637 197.805 181.729 198.145 181.912C198.484 182.092 198.727 182.342 198.871 182.662C199.02 182.982 199.094 183.447 199.094 184.057V188H198.039V184.057C198.039 183.529 197.924 183.146 197.693 182.908C197.467 182.666 197.145 182.545 196.727 182.545C196.414 182.545 196.119 182.627 195.842 182.791C195.568 182.951 195.373 183.17 195.256 183.447C195.139 183.725 195.08 184.107 195.08 184.596V188H194.025ZM200.312 184.889C200.312 183.736 200.633 182.883 201.273 182.328C201.809 181.867 202.461 181.637 203.23 181.637C204.086 181.637 204.785 181.918 205.328 182.48C205.871 183.039 206.143 183.812 206.143 184.801C206.143 185.602 206.021 186.232 205.779 186.693C205.541 187.15 205.191 187.506 204.73 187.76C204.273 188.014 203.773 188.141 203.23 188.141C202.359 188.141 201.654 187.861 201.115 187.303C200.58 186.744 200.312 185.939 200.312 184.889ZM201.396 184.889C201.396 185.686 201.57 186.283 201.918 186.682C202.266 187.076 202.703 187.273 203.23 187.273C203.754 187.273 204.189 187.074 204.537 186.676C204.885 186.277 205.059 185.67 205.059 184.854C205.059 184.084 204.883 183.502 204.531 183.107C204.184 182.709 203.75 182.51 203.23 182.51C202.703 182.51 202.266 182.707 201.918 183.102C201.57 183.496 201.396 184.092 201.396 184.889ZM207.385 190.385V181.777H208.346V182.586C208.572 182.27 208.828 182.033 209.113 181.877C209.398 181.717 209.744 181.637 210.15 181.637C210.682 181.637 211.15 181.773 211.557 182.047C211.963 182.32 212.27 182.707 212.477 183.207C212.684 183.703 212.787 184.248 212.787 184.842C212.787 185.479 212.672 186.053 212.441 186.564C212.215 187.072 211.883 187.463 211.445 187.736C211.012 188.006 210.555 188.141 210.074 188.141C209.723 188.141 209.406 188.066 209.125 187.918C208.848 187.77 208.619 187.582 208.439 187.355V190.385H207.385ZM208.34 184.924C208.34 185.725 208.502 186.316 208.826 186.699C209.15 187.082 209.543 187.273 210.004 187.273C210.473 187.273 210.873 187.076 211.205 186.682C211.541 186.283 211.709 185.668 211.709 184.836C211.709 184.043 211.545 183.449 211.217 183.055C210.893 182.66 210.504 182.463 210.051 182.463C209.602 182.463 209.203 182.674 208.855 183.096C208.512 183.514 208.34 184.123 208.34 184.924ZM218.324 185.996L219.414 186.131C219.242 186.768 218.924 187.262 218.459 187.613C217.994 187.965 217.4 188.141 216.678 188.141C215.768 188.141 215.045 187.861 214.51 187.303C213.979 186.74 213.713 185.953 213.713 184.941C213.713 183.895 213.982 183.082 214.521 182.504C215.061 181.926 215.76 181.637 216.619 181.637C217.451 181.637 218.131 181.92 218.658 182.486C219.186 183.053 219.449 183.85 219.449 184.877C219.449 184.939 219.447 185.033 219.443 185.158H214.803C214.842 185.842 215.035 186.365 215.383 186.729C215.73 187.092 216.164 187.273 216.684 187.273C217.07 187.273 217.4 187.172 217.674 186.969C217.947 186.766 218.164 186.441 218.324 185.996ZM214.861 184.291H218.336C218.289 183.768 218.156 183.375 217.938 183.113C217.602 182.707 217.166 182.504 216.631 182.504C216.146 182.504 215.738 182.666 215.406 182.99C215.078 183.314 214.896 183.748 214.861 184.291ZM226.387 187.057L226.539 187.988C226.242 188.051 225.977 188.082 225.742 188.082C225.359 188.082 225.062 188.021 224.852 187.9C224.641 187.779 224.492 187.621 224.406 187.426C224.32 187.227 224.277 186.811 224.277 186.178V182.598H223.504V181.777H224.277V180.236L225.326 179.604V181.777H226.387V182.598H225.326V186.236C225.326 186.537 225.344 186.73 225.379 186.816C225.418 186.902 225.479 186.971 225.561 187.021C225.646 187.072 225.768 187.098 225.924 187.098C226.041 187.098 226.195 187.084 226.387 187.057ZM227.424 188V179.41H228.479V182.492C228.971 181.922 229.592 181.637 230.342 181.637C230.803 181.637 231.203 181.729 231.543 181.912C231.883 182.092 232.125 182.342 232.27 182.662C232.418 182.982 232.492 183.447 232.492 184.057V188H231.438V184.057C231.438 183.529 231.322 183.146 231.092 182.908C230.865 182.666 230.543 182.545 230.125 182.545C229.812 182.545 229.518 182.627 229.24 182.791C228.967 182.951 228.771 183.17 228.654 183.447C228.537 183.725 228.479 184.107 228.479 184.596V188H227.424ZM238.363 185.996L239.453 186.131C239.281 186.768 238.963 187.262 238.498 187.613C238.033 187.965 237.439 188.141 236.717 188.141C235.807 188.141 235.084 187.861 234.549 187.303C234.018 186.74 233.752 185.953 233.752 184.941C233.752 183.895 234.021 183.082 234.561 182.504C235.1 181.926 235.799 181.637 236.658 181.637C237.49 181.637 238.17 181.92 238.697 182.486C239.225 183.053 239.488 183.85 239.488 184.877C239.488 184.939 239.486 185.033 239.482 185.158H234.842C234.881 185.842 235.074 186.365 235.422 186.729C235.77 187.092 236.203 187.273 236.723 187.273C237.109 187.273 237.439 187.172 237.713 186.969C237.986 186.766 238.203 186.441 238.363 185.996ZM234.9 184.291H238.375C238.328 183.768 238.195 183.375 237.977 183.113C237.641 182.707 237.205 182.504 236.67 182.504C236.186 182.504 235.777 182.666 235.445 182.99C235.117 183.314 234.936 183.748 234.9 184.291ZM243.701 186.143L244.744 185.979C244.803 186.396 244.965 186.717 245.23 186.939C245.5 187.162 245.875 187.273 246.355 187.273C246.84 187.273 247.199 187.176 247.434 186.98C247.668 186.781 247.785 186.549 247.785 186.283C247.785 186.045 247.682 185.857 247.475 185.721C247.33 185.627 246.971 185.508 246.396 185.363C245.623 185.168 245.086 185 244.785 184.859C244.488 184.715 244.262 184.518 244.105 184.268C243.953 184.014 243.877 183.734 243.877 183.43C243.877 183.152 243.939 182.896 244.064 182.662C244.193 182.424 244.367 182.227 244.586 182.07C244.75 181.949 244.973 181.848 245.254 181.766C245.539 181.68 245.844 181.637 246.168 181.637C246.656 181.637 247.084 181.707 247.451 181.848C247.822 181.988 248.096 182.18 248.271 182.422C248.447 182.66 248.568 182.98 248.635 183.383L247.604 183.523C247.557 183.203 247.42 182.953 247.193 182.773C246.971 182.594 246.654 182.504 246.244 182.504C245.76 182.504 245.414 182.584 245.207 182.744C245 182.904 244.896 183.092 244.896 183.307C244.896 183.443 244.939 183.566 245.025 183.676C245.111 183.789 245.246 183.883 245.43 183.957C245.535 183.996 245.846 184.086 246.361 184.227C247.107 184.426 247.627 184.59 247.92 184.719C248.217 184.844 248.449 185.027 248.617 185.27C248.785 185.512 248.869 185.812 248.869 186.172C248.869 186.523 248.766 186.855 248.559 187.168C248.355 187.477 248.061 187.717 247.674 187.889C247.287 188.057 246.85 188.141 246.361 188.141C245.553 188.141 244.936 187.973 244.51 187.637C244.088 187.301 243.818 186.803 243.701 186.143ZM249.73 184.889C249.73 183.736 250.051 182.883 250.691 182.328C251.227 181.867 251.879 181.637 252.648 181.637C253.504 181.637 254.203 181.918 254.746 182.48C255.289 183.039 255.561 183.812 255.561 184.801C255.561 185.602 255.439 186.232 255.197 186.693C254.959 187.15 254.609 187.506 254.148 187.76C253.691 188.014 253.191 188.141 252.648 188.141C251.777 188.141 251.072 187.861 250.533 187.303C249.998 186.744 249.73 185.939 249.73 184.889ZM250.814 184.889C250.814 185.686 250.988 186.283 251.336 186.682C251.684 187.076 252.121 187.273 252.648 187.273C253.172 187.273 253.607 187.074 253.955 186.676C254.303 186.277 254.477 185.67 254.477 184.854C254.477 184.084 254.301 183.502 253.949 183.107C253.602 182.709 253.168 182.51 252.648 182.51C252.121 182.51 251.684 182.707 251.336 183.102C250.988 183.496 250.814 184.092 250.814 184.889ZM31.791 204V197.777H32.7344V198.65C32.9297 198.346 33.1895 198.102 33.5137 197.918C33.8379 197.73 34.207 197.637 34.6211 197.637C35.082 197.637 35.459 197.732 35.752 197.924C36.0488 198.115 36.2578 198.383 36.3789 198.727C36.8711 198 37.5117 197.637 38.3008 197.637C38.918 197.637 39.3926 197.809 39.7246 198.152C40.0566 198.492 40.2227 199.018 40.2227 199.729V204H39.1738V200.08C39.1738 199.658 39.1387 199.355 39.0684 199.172C39.002 198.984 38.8789 198.834 38.6992 198.721C38.5195 198.607 38.3086 198.551 38.0664 198.551C37.6289 198.551 37.2656 198.697 36.9766 198.99C36.6875 199.279 36.543 199.744 36.543 200.385V204H35.4883V199.957C35.4883 199.488 35.4023 199.137 35.2305 198.902C35.0586 198.668 34.7773 198.551 34.3867 198.551C34.0898 198.551 33.8145 198.629 33.5605 198.785C33.3105 198.941 33.1289 199.17 33.0156 199.471C32.9023 199.771 32.8457 200.205 32.8457 200.771V204H31.791ZM45.8652 204V203.086C45.3809 203.789 44.7227 204.141 43.8906 204.141C43.5234 204.141 43.1797 204.07 42.8594 203.93C42.543 203.789 42.3066 203.613 42.1504 203.402C41.998 203.188 41.8906 202.926 41.8281 202.617C41.7852 202.41 41.7637 202.082 41.7637 201.633V197.777H42.8184V201.229C42.8184 201.779 42.8398 202.15 42.8828 202.342C42.9492 202.619 43.0898 202.838 43.3047 202.998C43.5195 203.154 43.7852 203.232 44.1016 203.232C44.418 203.232 44.7148 203.152 44.9922 202.992C45.2695 202.828 45.4648 202.607 45.5781 202.33C45.6953 202.049 45.7539 201.643 45.7539 201.111V197.777H46.8086V204H45.8652ZM48.0449 202.143L49.0879 201.979C49.1465 202.396 49.3086 202.717 49.5742 202.939C49.8438 203.162 50.2188 203.273 50.6992 203.273C51.1836 203.273 51.543 203.176 51.7773 202.98C52.0117 202.781 52.1289 202.549 52.1289 202.283C52.1289 202.045 52.0254 201.857 51.8184 201.721C51.6738 201.627 51.3145 201.508 50.7402 201.363C49.9668 201.168 49.4297 201 49.1289 200.859C48.832 200.715 48.6055 200.518 48.4492 200.268C48.2969 200.014 48.2207 199.734 48.2207 199.43C48.2207 199.152 48.2832 198.896 48.4082 198.662C48.5371 198.424 48.7109 198.227 48.9297 198.07C49.0938 197.949 49.3164 197.848 49.5977 197.766C49.8828 197.68 50.1875 197.637 50.5117 197.637C51 197.637 51.4277 197.707 51.7949 197.848C52.166 197.988 52.4395 198.18 52.6152 198.422C52.791 198.66 52.9121 198.98 52.9785 199.383L51.9473 199.523C51.9004 199.203 51.7637 198.953 51.5371 198.773C51.3145 198.594 50.998 198.504 50.5879 198.504C50.1035 198.504 49.7578 198.584 49.5508 198.744C49.3438 198.904 49.2402 199.092 49.2402 199.307C49.2402 199.443 49.2832 199.566 49.3691 199.676C49.4551 199.789 49.5898 199.883 49.7734 199.957C49.8789 199.996 50.1895 200.086 50.7051 200.227C51.4512 200.426 51.9707 200.59 52.2637 200.719C52.5605 200.844 52.793 201.027 52.9609 201.27C53.1289 201.512 53.2129 201.812 53.2129 202.172C53.2129 202.523 53.1094 202.855 52.9023 203.168C52.6992 203.477 52.4043 203.717 52.0176 203.889C51.6309 204.057 51.1934 204.141 50.7051 204.141C49.8965 204.141 49.2793 203.973 48.8535 203.637C48.4316 203.301 48.1621 202.803 48.0449 202.143ZM56.7695 203.057L56.9219 203.988C56.625 204.051 56.3594 204.082 56.125 204.082C55.7422 204.082 55.4453 204.021 55.2344 203.9C55.0234 203.779 54.875 203.621 54.7891 203.426C54.7031 203.227 54.6602 202.811 54.6602 202.178V198.598H53.8867V197.777H54.6602V196.236L55.709 195.604V197.777H56.7695V198.598H55.709V202.236C55.709 202.537 55.7266 202.73 55.7617 202.816C55.8008 202.902 55.8613 202.971 55.9434 203.021C56.0293 203.072 56.1504 203.098 56.3066 203.098C56.4238 203.098 56.5781 203.084 56.7695 203.057ZM61.1465 204V195.41H62.2012V198.492C62.6934 197.922 63.3145 197.637 64.0645 197.637C64.5254 197.637 64.9258 197.729 65.2656 197.912C65.6055 198.092 65.8477 198.342 65.9922 198.662C66.1406 198.982 66.2148 199.447 66.2148 200.057V204H65.1602V200.057C65.1602 199.529 65.0449 199.146 64.8145 198.908C64.5879 198.666 64.2656 198.545 63.8477 198.545C63.5352 198.545 63.2402 198.627 62.9629 198.791C62.6895 198.951 62.4941 199.17 62.377 199.447C62.2598 199.725 62.2012 200.107 62.2012 200.596V204H61.1465ZM71.8867 203.232C71.4961 203.564 71.1191 203.799 70.7559 203.936C70.3965 204.072 70.0098 204.141 69.5957 204.141C68.9121 204.141 68.3867 203.975 68.0195 203.643C67.6523 203.307 67.4688 202.879 67.4688 202.359C67.4688 202.055 67.5371 201.777 67.6738 201.527C67.8145 201.273 67.9961 201.07 68.2188 200.918C68.4453 200.766 68.6992 200.65 68.9805 200.572C69.1875 200.518 69.5 200.465 69.918 200.414C70.7695 200.312 71.3965 200.191 71.7988 200.051C71.8027 199.906 71.8047 199.814 71.8047 199.775C71.8047 199.346 71.7051 199.043 71.5059 198.867C71.2363 198.629 70.8359 198.51 70.3047 198.51C69.8086 198.51 69.4414 198.598 69.2031 198.773C68.9688 198.945 68.7949 199.252 68.6816 199.693L67.6504 199.553C67.7441 199.111 67.8984 198.756 68.1133 198.486C68.3281 198.213 68.6387 198.004 69.0449 197.859C69.4512 197.711 69.9219 197.637 70.457 197.637C70.9883 197.637 71.4199 197.699 71.752 197.824C72.084 197.949 72.3281 198.107 72.4844 198.299C72.6406 198.486 72.75 198.725 72.8125 199.014C72.8477 199.193 72.8652 199.518 72.8652 199.986V201.393C72.8652 202.373 72.8867 202.994 72.9297 203.256C72.9766 203.514 73.0664 203.762 73.1992 204H72.0977C71.9883 203.781 71.918 203.525 71.8867 203.232ZM71.7988 200.877C71.416 201.033 70.8418 201.166 70.0762 201.275C69.6426 201.338 69.3359 201.408 69.1562 201.486C68.9766 201.564 68.8379 201.68 68.7402 201.832C68.6426 201.98 68.5938 202.146 68.5938 202.33C68.5938 202.611 68.6992 202.846 68.9102 203.033C69.125 203.221 69.4375 203.314 69.8477 203.314C70.2539 203.314 70.6152 203.227 70.9316 203.051C71.248 202.871 71.4805 202.627 71.6289 202.318C71.7422 202.08 71.7988 201.729 71.7988 201.264V200.877ZM76.2344 204L73.8672 197.777H74.9805L76.3164 201.504C76.4609 201.906 76.5938 202.324 76.7148 202.758C76.8086 202.43 76.9395 202.035 77.1074 201.574L78.4902 197.777H79.5742L77.2188 204H76.2344ZM84.7656 201.996L85.8555 202.131C85.6836 202.768 85.3652 203.262 84.9004 203.613C84.4355 203.965 83.8418 204.141 83.1191 204.141C82.209 204.141 81.4863 203.861 80.9512 203.303C80.4199 202.74 80.1543 201.953 80.1543 200.941C80.1543 199.895 80.4238 199.082 80.9629 198.504C81.502 197.926 82.2012 197.637 83.0605 197.637C83.8926 197.637 84.5723 197.92 85.0996 198.486C85.627 199.053 85.8906 199.85 85.8906 200.877C85.8906 200.939 85.8887 201.033 85.8848 201.158H81.2441C81.2832 201.842 81.4766 202.365 81.8242 202.729C82.1719 203.092 82.6055 203.273 83.125 203.273C83.5117 203.273 83.8418 203.172 84.1152 202.969C84.3887 202.766 84.6055 202.441 84.7656 201.996ZM81.3027 200.291H84.7773C84.7305 199.768 84.5977 199.375 84.3789 199.113C84.043 198.707 83.6074 198.504 83.0723 198.504C82.5879 198.504 82.1797 198.666 81.8477 198.99C81.5195 199.314 81.3379 199.748 81.3027 200.291ZM94.5859 201.721L95.623 201.855C95.5098 202.57 95.2188 203.131 94.75 203.537C94.2852 203.939 93.7129 204.141 93.0332 204.141C92.1816 204.141 91.4961 203.863 90.9766 203.309C90.4609 202.75 90.2031 201.951 90.2031 200.912C90.2031 200.24 90.3145 199.652 90.5371 199.148C90.7598 198.645 91.0977 198.268 91.5508 198.018C92.0078 197.764 92.5039 197.637 93.0391 197.637C93.7148 197.637 94.2676 197.809 94.6973 198.152C95.127 198.492 95.4023 198.977 95.5234 199.605L94.498 199.764C94.4004 199.346 94.2266 199.031 93.9766 198.82C93.7305 198.609 93.4316 198.504 93.0801 198.504C92.5488 198.504 92.1172 198.695 91.7852 199.078C91.4531 199.457 91.2871 200.059 91.2871 200.883C91.2871 201.719 91.4473 202.326 91.7676 202.705C92.0879 203.084 92.5059 203.273 93.0215 203.273C93.4355 203.273 93.7812 203.146 94.0586 202.893C94.3359 202.639 94.5117 202.248 94.5859 201.721ZM100.586 203.232C100.195 203.564 99.8184 203.799 99.4551 203.936C99.0957 204.072 98.709 204.141 98.2949 204.141C97.6113 204.141 97.0859 203.975 96.7188 203.643C96.3516 203.307 96.168 202.879 96.168 202.359C96.168 202.055 96.2363 201.777 96.373 201.527C96.5137 201.273 96.6953 201.07 96.918 200.918C97.1445 200.766 97.3984 200.65 97.6797 200.572C97.8867 200.518 98.1992 200.465 98.6172 200.414C99.4688 200.312 100.096 200.191 100.498 200.051C100.502 199.906 100.504 199.814 100.504 199.775C100.504 199.346 100.404 199.043 100.205 198.867C99.9355 198.629 99.5352 198.51 99.0039 198.51C98.5078 198.51 98.1406 198.598 97.9023 198.773C97.668 198.945 97.4941 199.252 97.3809 199.693L96.3496 199.553C96.4434 199.111 96.5977 198.756 96.8125 198.486C97.0273 198.213 97.3379 198.004 97.7441 197.859C98.1504 197.711 98.6211 197.637 99.1562 197.637C99.6875 197.637 100.119 197.699 100.451 197.824C100.783 197.949 101.027 198.107 101.184 198.299C101.34 198.486 101.449 198.725 101.512 199.014C101.547 199.193 101.564 199.518 101.564 199.986V201.393C101.564 202.373 101.586 202.994 101.629 203.256C101.676 203.514 101.766 203.762 101.898 204H100.797C100.688 203.781 100.617 203.525 100.586 203.232ZM100.498 200.877C100.115 201.033 99.541 201.166 98.7754 201.275C98.3418 201.338 98.0352 201.408 97.8555 201.486C97.6758 201.564 97.5371 201.68 97.4395 201.832C97.3418 201.98 97.293 202.146 97.293 202.33C97.293 202.611 97.3984 202.846 97.6094 203.033C97.8242 203.221 98.1367 203.314 98.5469 203.314C98.9531 203.314 99.3145 203.227 99.6309 203.051C99.9473 202.871 100.18 202.627 100.328 202.318C100.441 202.08 100.498 201.729 100.498 201.264V200.877ZM103.205 204V197.777H104.148V198.65C104.344 198.346 104.604 198.102 104.928 197.918C105.252 197.73 105.621 197.637 106.035 197.637C106.496 197.637 106.873 197.732 107.166 197.924C107.463 198.115 107.672 198.383 107.793 198.727C108.285 198 108.926 197.637 109.715 197.637C110.332 197.637 110.807 197.809 111.139 198.152C111.471 198.492 111.637 199.018 111.637 199.729V204H110.588V200.08C110.588 199.658 110.553 199.355 110.482 199.172C110.416 198.984 110.293 198.834 110.113 198.721C109.934 198.607 109.723 198.551 109.48 198.551C109.043 198.551 108.68 198.697 108.391 198.99C108.102 199.279 107.957 199.744 107.957 200.385V204H106.902V199.957C106.902 199.488 106.816 199.137 106.645 198.902C106.473 198.668 106.191 198.551 105.801 198.551C105.504 198.551 105.229 198.629 104.975 198.785C104.725 198.941 104.543 199.17 104.43 199.471C104.316 199.771 104.26 200.205 104.26 200.771V204H103.205ZM117.461 201.996L118.551 202.131C118.379 202.768 118.061 203.262 117.596 203.613C117.131 203.965 116.537 204.141 115.814 204.141C114.904 204.141 114.182 203.861 113.646 203.303C113.115 202.74 112.85 201.953 112.85 200.941C112.85 199.895 113.119 199.082 113.658 198.504C114.197 197.926 114.896 197.637 115.756 197.637C116.588 197.637 117.268 197.92 117.795 198.486C118.322 199.053 118.586 199.85 118.586 200.877C118.586 200.939 118.584 201.033 118.58 201.158H113.939C113.979 201.842 114.172 202.365 114.52 202.729C114.867 203.092 115.301 203.273 115.82 203.273C116.207 203.273 116.537 203.172 116.811 202.969C117.084 202.766 117.301 202.441 117.461 201.996ZM113.998 200.291H117.473C117.426 199.768 117.293 199.375 117.074 199.113C116.738 198.707 116.303 198.504 115.768 198.504C115.283 198.504 114.875 198.666 114.543 198.99C114.215 199.314 114.033 199.748 113.998 200.291ZM125.523 203.057L125.676 203.988C125.379 204.051 125.113 204.082 124.879 204.082C124.496 204.082 124.199 204.021 123.988 203.9C123.777 203.779 123.629 203.621 123.543 203.426C123.457 203.227 123.414 202.811 123.414 202.178V198.598H122.641V197.777H123.414V196.236L124.463 195.604V197.777H125.523V198.598H124.463V202.236C124.463 202.537 124.48 202.73 124.516 202.816C124.555 202.902 124.615 202.971 124.697 203.021C124.783 203.072 124.904 203.098 125.061 203.098C125.178 203.098 125.332 203.084 125.523 203.057ZM126.168 200.889C126.168 199.736 126.488 198.883 127.129 198.328C127.664 197.867 128.316 197.637 129.086 197.637C129.941 197.637 130.641 197.918 131.184 198.48C131.727 199.039 131.998 199.812 131.998 200.801C131.998 201.602 131.877 202.232 131.635 202.693C131.396 203.15 131.047 203.506 130.586 203.76C130.129 204.014 129.629 204.141 129.086 204.141C128.215 204.141 127.51 203.861 126.971 203.303C126.436 202.744 126.168 201.939 126.168 200.889ZM127.252 200.889C127.252 201.686 127.426 202.283 127.773 202.682C128.121 203.076 128.559 203.273 129.086 203.273C129.609 203.273 130.045 203.074 130.393 202.676C130.74 202.277 130.914 201.67 130.914 200.854C130.914 200.084 130.738 199.502 130.387 199.107C130.039 198.709 129.605 198.51 129.086 198.51C128.559 198.51 128.121 198.707 127.773 199.102C127.426 199.496 127.252 200.092 127.252 200.889ZM140.641 201.721L141.678 201.855C141.564 202.57 141.273 203.131 140.805 203.537C140.34 203.939 139.768 204.141 139.088 204.141C138.236 204.141 137.551 203.863 137.031 203.309C136.516 202.75 136.258 201.951 136.258 200.912C136.258 200.24 136.369 199.652 136.592 199.148C136.814 198.645 137.152 198.268 137.605 198.018C138.062 197.764 138.559 197.637 139.094 197.637C139.77 197.637 140.322 197.809 140.752 198.152C141.182 198.492 141.457 198.977 141.578 199.605L140.553 199.764C140.455 199.346 140.281 199.031 140.031 198.82C139.785 198.609 139.486 198.504 139.135 198.504C138.604 198.504 138.172 198.695 137.84 199.078C137.508 199.457 137.342 200.059 137.342 200.883C137.342 201.719 137.502 202.326 137.822 202.705C138.143 203.084 138.561 203.273 139.076 203.273C139.49 203.273 139.836 203.146 140.113 202.893C140.391 202.639 140.566 202.248 140.641 201.721ZM146.641 203.232C146.25 203.564 145.873 203.799 145.51 203.936C145.15 204.072 144.764 204.141 144.35 204.141C143.666 204.141 143.141 203.975 142.773 203.643C142.406 203.307 142.223 202.879 142.223 202.359C142.223 202.055 142.291 201.777 142.428 201.527C142.568 201.273 142.75 201.07 142.973 200.918C143.199 200.766 143.453 200.65 143.734 200.572C143.941 200.518 144.254 200.465 144.672 200.414C145.523 200.312 146.15 200.191 146.553 200.051C146.557 199.906 146.559 199.814 146.559 199.775C146.559 199.346 146.459 199.043 146.26 198.867C145.99 198.629 145.59 198.51 145.059 198.51C144.562 198.51 144.195 198.598 143.957 198.773C143.723 198.945 143.549 199.252 143.436 199.693L142.404 199.553C142.498 199.111 142.652 198.756 142.867 198.486C143.082 198.213 143.393 198.004 143.799 197.859C144.205 197.711 144.676 197.637 145.211 197.637C145.742 197.637 146.174 197.699 146.506 197.824C146.838 197.949 147.082 198.107 147.238 198.299C147.395 198.486 147.504 198.725 147.566 199.014C147.602 199.193 147.619 199.518 147.619 199.986V201.393C147.619 202.373 147.641 202.994 147.684 203.256C147.73 203.514 147.82 203.762 147.953 204H146.852C146.742 203.781 146.672 203.525 146.641 203.232ZM146.553 200.877C146.17 201.033 145.596 201.166 144.83 201.275C144.396 201.338 144.09 201.408 143.91 201.486C143.73 201.564 143.592 201.68 143.494 201.832C143.396 201.98 143.348 202.146 143.348 202.33C143.348 202.611 143.453 202.846 143.664 203.033C143.879 203.221 144.191 203.314 144.602 203.314C145.008 203.314 145.369 203.227 145.686 203.051C146.002 202.871 146.234 202.627 146.383 202.318C146.496 202.08 146.553 201.729 146.553 201.264V200.877ZM149.236 204V195.41H150.291V204H149.236ZM155.992 201.721L157.029 201.855C156.916 202.57 156.625 203.131 156.156 203.537C155.691 203.939 155.119 204.141 154.439 204.141C153.588 204.141 152.902 203.863 152.383 203.309C151.867 202.75 151.609 201.951 151.609 200.912C151.609 200.24 151.721 199.652 151.943 199.148C152.166 198.645 152.504 198.268 152.957 198.018C153.414 197.764 153.91 197.637 154.445 197.637C155.121 197.637 155.674 197.809 156.104 198.152C156.533 198.492 156.809 198.977 156.93 199.605L155.904 199.764C155.807 199.346 155.633 199.031 155.383 198.82C155.137 198.609 154.838 198.504 154.486 198.504C153.955 198.504 153.523 198.695 153.191 199.078C152.859 199.457 152.693 200.059 152.693 200.883C152.693 201.719 152.854 202.326 153.174 202.705C153.494 203.084 153.912 203.273 154.428 203.273C154.842 203.273 155.188 203.146 155.465 202.893C155.742 202.639 155.918 202.248 155.992 201.721ZM162.01 204V203.086C161.525 203.789 160.867 204.141 160.035 204.141C159.668 204.141 159.324 204.07 159.004 203.93C158.688 203.789 158.451 203.613 158.295 203.402C158.143 203.188 158.035 202.926 157.973 202.617C157.93 202.41 157.908 202.082 157.908 201.633V197.777H158.963V201.229C158.963 201.779 158.984 202.15 159.027 202.342C159.094 202.619 159.234 202.838 159.449 202.998C159.664 203.154 159.93 203.232 160.246 203.232C160.562 203.232 160.859 203.152 161.137 202.992C161.414 202.828 161.609 202.607 161.723 202.33C161.84 202.049 161.898 201.643 161.898 201.111V197.777H162.953V204H162.01ZM164.588 204V195.41H165.643V204H164.588ZM171.344 203.232C170.953 203.564 170.576 203.799 170.213 203.936C169.854 204.072 169.467 204.141 169.053 204.141C168.369 204.141 167.844 203.975 167.477 203.643C167.109 203.307 166.926 202.879 166.926 202.359C166.926 202.055 166.994 201.777 167.131 201.527C167.271 201.273 167.453 201.07 167.676 200.918C167.902 200.766 168.156 200.65 168.438 200.572C168.645 200.518 168.957 200.465 169.375 200.414C170.227 200.312 170.854 200.191 171.256 200.051C171.26 199.906 171.262 199.814 171.262 199.775C171.262 199.346 171.162 199.043 170.963 198.867C170.693 198.629 170.293 198.51 169.762 198.51C169.266 198.51 168.898 198.598 168.66 198.773C168.426 198.945 168.252 199.252 168.139 199.693L167.107 199.553C167.201 199.111 167.355 198.756 167.57 198.486C167.785 198.213 168.096 198.004 168.502 197.859C168.908 197.711 169.379 197.637 169.914 197.637C170.445 197.637 170.877 197.699 171.209 197.824C171.541 197.949 171.785 198.107 171.941 198.299C172.098 198.486 172.207 198.725 172.27 199.014C172.305 199.193 172.322 199.518 172.322 199.986V201.393C172.322 202.373 172.344 202.994 172.387 203.256C172.434 203.514 172.523 203.762 172.656 204H171.555C171.445 203.781 171.375 203.525 171.344 203.232ZM171.256 200.877C170.873 201.033 170.299 201.166 169.533 201.275C169.1 201.338 168.793 201.408 168.613 201.486C168.434 201.564 168.295 201.68 168.197 201.832C168.1 201.98 168.051 202.146 168.051 202.33C168.051 202.611 168.156 202.846 168.367 203.033C168.582 203.221 168.895 203.314 169.305 203.314C169.711 203.314 170.072 203.227 170.389 203.051C170.705 202.871 170.938 202.627 171.086 202.318C171.199 202.08 171.256 201.729 171.256 201.264V200.877ZM176.266 203.057L176.418 203.988C176.121 204.051 175.855 204.082 175.621 204.082C175.238 204.082 174.941 204.021 174.73 203.9C174.52 203.779 174.371 203.621 174.285 203.426C174.199 203.227 174.156 202.811 174.156 202.178V198.598H173.383V197.777H174.156V196.236L175.205 195.604V197.777H176.266V198.598H175.205V202.236C175.205 202.537 175.223 202.73 175.258 202.816C175.297 202.902 175.357 202.971 175.439 203.021C175.525 203.072 175.646 203.098 175.803 203.098C175.92 203.098 176.074 203.084 176.266 203.057ZM181.562 201.996L182.652 202.131C182.48 202.768 182.162 203.262 181.697 203.613C181.232 203.965 180.639 204.141 179.916 204.141C179.006 204.141 178.283 203.861 177.748 203.303C177.217 202.74 176.951 201.953 176.951 200.941C176.951 199.895 177.221 199.082 177.76 198.504C178.299 197.926 178.998 197.637 179.857 197.637C180.689 197.637 181.369 197.92 181.896 198.486C182.424 199.053 182.688 199.85 182.688 200.877C182.688 200.939 182.686 201.033 182.682 201.158H178.041C178.08 201.842 178.273 202.365 178.621 202.729C178.969 203.092 179.402 203.273 179.922 203.273C180.309 203.273 180.639 203.172 180.912 202.969C181.186 202.766 181.402 202.441 181.562 201.996ZM178.1 200.291H181.574C181.527 199.768 181.395 199.375 181.176 199.113C180.84 198.707 180.404 198.504 179.869 198.504C179.385 198.504 178.977 198.666 178.645 198.99C178.316 199.314 178.135 199.748 178.1 200.291ZM184.281 204V202.799H185.482V204H184.281Z" fill="black" fill-opacity="0.5"/>
<rect x="0.5" y="0.5" width="289" height="236" rx="6.5" stroke="black" stroke-opacity="0.1"/>
<defs>
<clipPath id="clip0_7_1409">
<rect width="228" height="69" fill="white" transform="translate(31 31)"/>
</clipPath>
</defs>
</svg>
