<?xml version="1.0" encoding="utf-8"?>
<!-- Generator: Adobe Illustrator 25.4.1, SVG Export Plug-In . SVG Version: 6.00 Build 0)  -->
<svg version="1.1" xmlns="http://www.w3.org/2000/svg" xmlns:xlink="http://www.w3.org/1999/xlink" x="0px" y="0px"
	 viewBox="0 0 1927.7 1830" style="enable-background:new 0 0 1927.7 1830;" xml:space="preserve">
<style type="text/css">
	.st0{fill:#FFFFFF;}
</style>
<g id="Background">
</g>
<g id="Illustration">
	<g id="Disabled_employment_1_">
		<g>
			<g>
				<g>
					<g>
						<path class="st0" d="M1214.1,2.3H806.5c-15.9,0-28.8,12.9-28.8,28.8v449.7c0,15.9,12.9,28.8,28.8,28.8h407.6
							c15.9,0,28.8-12.9,28.8-28.8V31.1C1242.9,15.2,1230,2.3,1214.1,2.3z"/>
						<path d="M1214.1,512H806.5c-17.2,0-31.1-14-31.1-31.1V31.1c0-17.2,14-31.1,31.1-31.1h407.6c17.2,0,31.1,14,31.1,31.1v449.7
							C1245.3,498,1231.3,512,1214.1,512z M806.5,4.6c-14.6,0-26.5,11.9-26.5,26.5v449.7c0,14.6,11.9,26.5,26.5,26.5h407.6
							c14.6,0,26.5-11.9,26.5-26.5V31.1c0-14.6-11.9-26.5-26.5-26.5H806.5z"/>
					</g>
					<g>
						<path d="M1016.3,51.9H800.6c-1.3,0-2.3-1-2.3-2.3c0-1.3,1-2.3,2.3-2.3h215.7c1.3,0,2.3,1,2.3,2.3
							C1018.6,50.9,1017.6,51.9,1016.3,51.9z"/>
						<g>
							<ellipse transform="matrix(0.7071 -0.7071 0.7071 0.7071 219.3493 578.5052)" cx="808" cy="24.5" rx="7.4" ry="7.4"/>
							<ellipse transform="matrix(0.2298 -0.9732 0.9732 0.2298 621.2841 833.9765)" cx="837.5" cy="24.5" rx="7.4" ry="7.4"/>
							<ellipse transform="matrix(0.7071 -0.7071 0.7071 0.7071 236.6522 620.2781)" cx="867.1" cy="24.5" rx="7.4" ry="7.4"/>
						</g>
						<path d="M942.5,26.8h-36.7c-1.3,0-2.3-1-2.3-2.3c0-1.3,1-2.3,2.3-2.3h36.7c1.3,0,2.3,1,2.3,2.3
							C944.8,25.8,943.8,26.8,942.5,26.8z"/>
					</g>
				</g>
				<g>
					<g>
						<g>
							<path class="st0" d="M939.7,243c13.4-23.5,38.4-40.1,67.4-43.1l2-114.8c-83.4,0.3-156.9,47.2-190.4,116.7L939.7,243z"/>
							<path d="M939.7,245.3c-0.2,0-0.5,0-0.7-0.1l-121-41.2c-0.6-0.2-1.1-0.7-1.4-1.3c-0.3-0.6-0.2-1.3,0.1-1.9
								c34.5-71.4,110-117.7,192.5-118c0.7,0,1.2,0.2,1.7,0.7c0.4,0.4,0.7,1,0.7,1.7l-2,114.8c0,1.2-0.9,2.1-2.1,2.3
								c-27.7,2.9-52.3,18.5-65.6,41.9C941.3,244.8,940.6,245.3,939.7,245.3z M822,200.4l116.7,39.7c14-23.2,38.4-38.9,66.2-42.3
								l1.9-110.4C927.9,88.6,855.9,132.6,822,200.4z"/>
						</g>
						<path d="M934,118.6c-0.9,0-1.8-0.5-2.2-1.5c-0.5-1.2,0.1-2.5,1.3-3c18.9-7.6,38.7-12.4,59-14.1c1.3-0.1,2.4,0.8,2.5,2.1
							c0.1,1.3-0.8,2.4-2.1,2.5c-19.9,1.7-39.3,6.4-57.7,13.8C934.6,118.6,934.3,118.6,934,118.6z"/>
						<path d="M867.6,162.9c-0.6,0-1.2-0.2-1.6-0.7c-0.9-0.9-0.9-2.4,0-3.3c14.2-14.5,30.7-26.8,49.1-36.4c1.1-0.6,2.5-0.2,3.1,1
							c0.6,1.1,0.2,2.5-1,3.1c-17.9,9.4-34,21.4-47.9,35.5C868.8,162.7,868.2,162.9,867.6,162.9z"/>
						<g>
							<path class="st0" d="M1100.6,293.8c-6.8,37.7-41.2,67.4-83.3,68.7c-12.6,0.4-24.5-1.8-35.4-6l-65.7,101.7
								c30.5,13.8,65,20.5,101.1,18.5c105-6,187.5-85,196.6-180.2L1100.6,293.8z"/>
							<path d="M1004.7,479.4c-31,0-61.7-6.5-89.5-19c-0.6-0.3-1.1-0.8-1.3-1.5c-0.2-0.6-0.1-1.3,0.3-1.9l65.7-101.7
								c0.6-0.9,1.8-1.3,2.8-0.9c10.9,4.3,22.6,6.2,34.5,5.9c40.2-1.3,74.3-29.3,81.1-66.8c0.2-1.1,1.1-1.9,2.3-1.9l113.3,2.7
								c0.6,0,1.3,0.3,1.7,0.8c0.4,0.5,0.6,1.1,0.6,1.8c-9.4,97.9-94.9,176.3-198.8,182.2C1013.2,479.3,1008.9,479.4,1004.7,479.4z
								 M919.6,457.2c30.2,13.2,63.9,19.1,97.6,17.2c100.8-5.8,183.8-81.1,194.2-175.6l-108.9-2.6c-8,38.6-43.4,67.3-85.1,68.6
								c-12,0.4-23.6-1.5-34.6-5.5L919.6,457.2z"/>
						</g>
						<path d="M1004.5,462.9c-22.2,0-43.8-3.5-64.4-10.4c-1.2-0.4-1.9-1.7-1.5-2.9c0.4-1.2,1.7-1.9,2.9-1.5
							c20,6.8,41.2,10.2,62.9,10.2c3.9,0,7.8-0.1,11.7-0.3c1.2-0.1,2.4,0.9,2.5,2.2c0.1,1.3-0.9,2.4-2.2,2.5
							C1012.5,462.8,1008.4,462.9,1004.5,462.9z"/>
						<path d="M1057.8,455.8c-1,0-2-0.7-2.2-1.7c-0.3-1.2,0.4-2.5,1.6-2.9c68.8-18.8,122-73.4,135.4-139.2c0.3-1.3,1.5-2.1,2.7-1.8
							c1.3,0.3,2.1,1.5,1.8,2.7c-13.8,67.5-68.2,123.5-138.7,142.7C1058.2,455.8,1058,455.8,1057.8,455.8z"/>
						<g>
							<path class="st0" d="M895.6,447.5l66.3-102C942,330.8,929.3,308,929.3,282c0-6.3,0.8-12.4,2.2-18.2L810,223.1
								c-6.5,19.1-10,39.5-10,60.6C800,353.4,838.2,413.5,895.6,447.5z"/>
							<path d="M895.6,449.9c-0.4,0-0.8-0.1-1.2-0.3c-60.6-36-96.7-98-96.7-165.9c0-20.9,3.4-41.5,10.2-61.3
								c0.4-1.2,1.7-1.9,2.9-1.5l121.5,40.7c1.1,0.4,1.8,1.6,1.5,2.7c-1.4,5.8-2.1,11.8-2.1,17.7c0,24.3,11.5,46.7,31.6,61.6
								c1,0.7,1.2,2.1,0.6,3.1l-66.3,102C897.1,449.5,896.3,449.9,895.6,449.9z M811.5,226c-6.1,18.6-9.2,38-9.2,57.6
								c0,65.6,34.6,125.5,92.6,160.8l63.9-98.4c-20.2-15.8-31.8-39-31.8-64c0-5.6,0.6-11.2,1.8-16.7L811.5,226z"/>
						</g>
					</g>
					<g>
						<path d="M1044.8,195.5c38.3,5.7,67.8,35.4,71.3,72.1l185.3,5.4c0-0.1,0-0.2,0-0.2c0-136-108.3-252.3-253.3-267.3L1044.8,195.5
							z"/>
					</g>
				</g>
			</g>
			<g>
				<g>
					<path class="st0" d="M837,200.2H594.4c-12,0-21.6,9.7-21.6,21.6v322.3c0,12,9.7,21.6,21.6,21.6H837c12,0,21.6-9.7,21.6-21.6
						V221.8C858.7,209.9,849,200.2,837,200.2z"/>
					<path d="M837,568.1H594.4c-13.2,0-24-10.8-24-24V221.8c0-13.2,10.8-24,24-24H837c13.2,0,24,10.8,24,24v322.3
						C861,557.4,850.2,568.1,837,568.1z M594.4,202.5c-10.7,0-19.3,8.7-19.3,19.3v322.3c0,10.7,8.7,19.3,19.3,19.3H837
						c10.7,0,19.3-8.7,19.3-19.3V221.8c0-10.7-8.7-19.3-19.3-19.3H594.4z"/>
				</g>
				<g>
					<path d="M669,511.6h-62.3c-1.3,0-2.3-1-2.3-2.3V304.7c0-1.3,1-2.3,2.3-2.3H669c1.3,0,2.3,1,2.3,2.3v204.6
						C671.4,510.6,670.3,511.6,669,511.6z M609.1,507h57.6V307h-57.6V507z"/>
					<path d="M746.9,511.6h-62.3c-1.3,0-2.3-1-2.3-2.3V248.2c0-1.3,1-2.3,2.3-2.3h62.3c1.3,0,2.3,1,2.3,2.3v261.1
						C749.2,510.6,748.1,511.6,746.9,511.6z M686.9,507h57.6V250.5h-57.6V507z"/>
					<path d="M824.7,511.6h-62.3c-1.3,0-2.3-1-2.3-2.3v-122c0-1.3,1-2.3,2.3-2.3h62.3c1.3,0,2.3,1,2.3,2.3v122
						C827,510.6,826,511.6,824.7,511.6z M764.7,507h57.6V389.6h-57.6V507z"/>
				</g>
			</g>
		</g>
		<g>
			<g>
				<g>
					<g>
						<polygon class="st0" points="1765.2,1602.5 1780,1706.2 1817.7,1706.3 1819.5,1604.4 						"/>
						<path d="M1817.7,1708.7C1817.7,1708.7,1817.7,1708.7,1817.7,1708.7l-37.8-0.1c-1.2,0-2.1-0.9-2.3-2l-14.8-103.7
							c-0.1-0.7,0.1-1.4,0.6-1.9c0.5-0.5,1.1-0.8,1.8-0.8l54.3,1.9c1.3,0,2.3,1.1,2.2,2.4l-1.8,101.9
							C1820,1707.7,1819,1708.7,1817.7,1708.7z M1782,1703.9l33.5,0.1l1.7-97.4l-49.3-1.7L1782,1703.9z"/>
					</g>
					<g>
						<path class="st0" d="M1778.7,1805.3c14.8,1.6,36.9,2.2,66.4-0.4c10.5-0.9,18-10.7,16.3-21.2c-4.6-28.1-17.4-77.8-37.5-100.5
							l-10,14.2l-5.9-14.7c-0.9-1.6-26-2.6-26.5,0.3l-1.5,14.3l-14.2-15.9l0.8,52.3c0.1,5.8-0.5,11.5-1.6,17.2l-3.7,18.1
							c-2.2,10.9,0.5,22.4,8.1,30.5C1772.3,1802.8,1775.6,1805,1778.7,1805.3z"/>
						<path d="M1807.4,1809c-12.4,0-22-0.6-28.9-1.4c-3.5-0.4-7.2-2.6-10.8-6.4c-7.9-8.4-11.2-20.6-8.7-32.6l3.7-18.1
							c1.1-5.5,1.7-11.1,1.6-16.7l-0.8-52.3c0-1,0.6-1.8,1.5-2.2c0.9-0.4,1.9-0.1,2.6,0.6l10.7,12l1-9.1c0.4-2.6,3.4-3.1,4.7-3.4
							c4.3-0.8,24.1-1.3,26.1,2.1c0.1,0.1,0.1,0.2,0.2,0.3l4.3,10.7l7.5-10.7c0.4-0.6,1.1-0.9,1.8-1c0.7,0,1.4,0.2,1.9,0.8
							c20.8,23.5,33.7,75,38.1,101.7c0.9,5.7-0.6,11.5-4.1,16c-3.5,4.5-8.6,7.3-14.3,7.8C1830.6,1808.5,1818,1809,1807.4,1809z
							 M1778.9,1803c12.7,1.4,34.4,2.4,65.9-0.4c4.4-0.4,8.3-2.5,11-6c2.7-3.5,3.9-8,3.2-12.4c-4.1-25.4-16.1-73.4-35.1-97.1
							l-8.2,11.7c-0.5,0.7-1.3,1.1-2.2,1c-0.8-0.1-1.6-0.6-1.9-1.4l-5.6-13.8c-3.8-1-18.9-1.3-22.5-0.2l-1.4,13.4
							c-0.1,0.9-0.7,1.7-1.6,2c-0.9,0.3-1.8,0-2.4-0.7l-10.1-11.3l0.7,46.1c0.1,5.9-0.5,11.9-1.7,17.7l-3.7,18.1
							c-2.2,10.5,0.7,21.1,7.6,28.5C1773.8,1801,1776.6,1802.7,1778.9,1803z"/>
					</g>
					<path d="M1805.7,1790.5c-16.3,0-26.4-2-27.1-2.1c-1.3-0.3-2.1-1.5-1.8-2.7c0.3-1.3,1.5-2.1,2.7-1.8c0.3,0.1,26.5,5.2,63-1.2
						c1.3-0.2,2.5,0.6,2.7,1.9c0.2,1.3-0.6,2.5-1.9,2.7C1828.8,1789.7,1816,1790.5,1805.7,1790.5z"/>
					<path d="M1827.9,1750.8h-34.3c-1.3,0-2.3-1-2.3-2.3s1-2.3,2.3-2.3h34.3c1.3,0,2.3,1,2.3,2.3S1829.2,1750.8,1827.9,1750.8z"/>
				</g>
				<g>
					<g>
						<polygon class="st0" points="1494.1,1611.8 1480.8,1732.6 1429.9,1743.3 1433,1601.6 						"/>
						<path d="M1429.9,1745.6c-0.5,0-1.1-0.2-1.5-0.5c-0.5-0.5-0.9-1.1-0.8-1.8l3.1-141.7c0-0.7,0.3-1.3,0.8-1.7
							c0.5-0.4,1.2-0.6,1.9-0.5l61,10.2c1.2,0.2,2.1,1.3,1.9,2.5l-13.3,120.8c-0.1,1-0.9,1.8-1.8,2l-50.8,10.6
							C1430.3,1745.6,1430.1,1745.6,1429.9,1745.6z M1435.3,1604.3l-3,136.1l46.3-9.7l12.9-117L1435.3,1604.3z"/>
					</g>
					<g>
						<path class="st0" d="M1502.3,1790.2c1.1-21.2,1.1-60.2-11.7-79l-40.7,14.5v-8.7c0-2.8-2-5.1-4.5-5.2l-22.7-1.3
							c-8.5-0.5-16.9,1.3-24.6,5.1c-22.8,11.2-92.1,39.9-101.8,72.3c-2.8,9.5,4.6,19.1,14.6,19.4c22.8,0.7,77.7,1.4,176.2-2
							C1495.2,1804.9,1501.8,1798.4,1502.3,1790.2z"/>
						<path d="M1356.3,1810.1c-20.9,0-35.8-0.3-45.6-0.6c-5.6-0.2-10.8-3-14.1-7.5c-3.2-4.4-4.1-9.8-2.6-14.9
							c8.8-29.4,63.5-55.1,93-68.9c3.9-1.8,7.3-3.4,10-4.7c8.1-4,17-5.8,25.8-5.3l22.7,1.3c3.8,0.2,6.7,3.5,6.7,7.6v5.4l37.6-13.4
							c1-0.4,2.1,0,2.7,0.9c13.2,19.3,13.3,58.7,12.2,80.4c-0.5,9.5-8,16.8-17.5,17.2C1429.3,1809.5,1386.6,1810.1,1356.3,1810.1z
							 M1419.9,1712.8c-7.1,0-14.3,1.7-20.9,4.9c-2.7,1.3-6.2,2.9-10.1,4.8c-26.7,12.5-82.3,38.6-90.5,66.1
							c-1.1,3.7-0.4,7.6,1.9,10.8c2.4,3.4,6.4,5.4,10.5,5.6c23.9,0.7,78.6,1.3,176-2c7.1-0.2,12.7-5.7,13-12.8
							c1.1-20.6,1.1-57.3-10.4-76l-38.9,13.9c-0.7,0.3-1.5,0.1-2.1-0.3c-0.6-0.4-1-1.1-1-1.9v-8.7c0-1.6-1-2.9-2.4-2.9l-22.7-1.3
							C1421.6,1712.8,1420.8,1712.8,1419.9,1712.8z"/>
					</g>
					<path d="M1372.1,1790c-30.2,0-49.3-1.4-49.6-1.4c-1.3-0.1-2.2-1.2-2.1-2.5c0.1-1.3,1.2-2.2,2.5-2.1c0.7,0.1,72.4,5.3,159-4.8
						c1.3-0.1,2.4,0.8,2.6,2c0.1,1.3-0.8,2.4-2,2.6C1439.8,1788.7,1400.9,1790,1372.1,1790z"/>
					<path d="M1384.7,1755.4c-0.7,0-1.4-0.3-1.9-1c-0.8-1-0.5-2.5,0.5-3.2l39.1-28.1c1-0.8,2.5-0.5,3.2,0.5c0.8,1,0.5,2.5-0.5,3.2
						L1386,1755C1385.6,1755.3,1385.1,1755.4,1384.7,1755.4z"/>
				</g>
				<g>
					<g>
						<path class="st0" d="M1478.2,827.9c0,0-72.8,499.7-57.3,833.2l22.7,2.3c12.2,1.2,24.5,1.5,36.8,0.9l21.6-1.1
							c0,0,86.9-506.7,130.2-590.8c0,0,118,450.6,122.5,572.6c0,0,52.4,5.3,73.3-2.2c11.2-117.8,14.5-239.7,15-316.3
							c1.6-219.1-19.3-318.6-30.8-365.8c-10.5-43.4-21.9-78.6-30.1-102.4l-27.6-78.7L1478.2,827.9z"/>
						<path d="M1468.1,1667c-8.3,0-16.5-0.4-24.7-1.2l-22.7-2.3c-1.1-0.1-2-1.1-2.1-2.2c-15.4-329.9,56.6-828.7,57.3-833.7
							c0.1-1,0.9-1.8,1.9-2l276.4-48.3c1.1-0.2,2.2,0.4,2.6,1.5l27.6,78.7c11.6,33.5,21.8,68,30.2,102.6
							c14,57.5,32.4,158.1,30.9,366.4c-0.5,64.2-3.1,190.7-15,316.5c-0.1,0.9-0.7,1.7-1.5,2c-21.2,7.6-72.2,2.6-74.3,2.4
							c-1.2-0.1-2-1.1-2.1-2.2c-4.2-112.7-106.7-511.5-120.8-566c-43.5,97.8-126.5,579.5-127.3,584.4c-0.2,1.1-1.1,1.9-2.2,1.9
							l-21.6,1.1C1476.4,1666.9,1472.2,1667,1468.1,1667z M1423.1,1659l20.7,2.1c12.1,1.2,24.3,1.5,36.4,0.9l19.7-1
							c6.6-38.5,88-507.8,130.2-589.6c0.4-0.9,1.4-1.3,2.3-1.2c1,0.1,1.7,0.8,2,1.7c1.2,4.5,116.8,447.3,122.5,571.1
							c9.5,0.8,50.3,4,68.9-1.8c11.8-125.1,14.4-250.7,14.9-314.6c1.5-207.8-16.8-308-30.7-365.3c-8.4-34.4-18.5-68.8-30-102.2
							l-26.9-76.8l-272.8,47.6C1475.7,861.9,1408.6,1339.1,1423.1,1659z"/>
					</g>
					<path d="M1636.3,1089.4c-1,0-2-0.7-2.2-1.7l-12.1-44.1c-3-11.1-11.9-19.4-23.2-21.7l-11.3-2.3c-1.3-0.3-2.1-1.5-1.8-2.7
						c0.3-1.3,1.5-2.1,2.7-1.8l11.3,2.3c13,2.7,23.2,12.3,26.7,25.1l12.1,44.1c0.3,1.2-0.4,2.5-1.6,2.9
						C1636.7,1089.4,1636.5,1089.4,1636.3,1089.4z"/>
					<path d="M1796.4,1007.3c-0.1,0-0.3,0-0.4,0c-66.8-11.1-80.4-64.1-80.5-64.6c-0.3-1.2,0.5-2.5,1.7-2.8c1.2-0.3,2.5,0.5,2.8,1.7
						c0.1,0.5,13.1,50.5,76.7,61.1c1.3,0.2,2.1,1.4,1.9,2.7C1798.5,1006.5,1797.5,1007.3,1796.4,1007.3z"/>
					<path d="M1474.9,974.4c-0.9,0-1.8-0.5-2.1-1.4c-0.5-1.2,0-2.5,1.2-3.1c36-15.6,35.2-49.3,35.2-49.7c0-1.3,0.9-2.4,2.2-2.4
						c1.3-0.1,2.4,1,2.4,2.2c0,0.4,1,37.2-37.9,54.1C1475.5,974.4,1475.2,974.4,1474.9,974.4z"/>
				</g>
			</g>
			<g>
				<path d="M1484.1,412c48.2-5.4,151-15.2,221.8-8.7c21.4,2,52.2,15,68.4,29c47.8,41.3,138.1,132.2,153.2,241.3
					c2.2,15.9-8.2,30.9-23.9,34.3l-83.4,18.5c0,0,33.2,131,30.6,153.6c-2.7,22.6-71.6,61.1-157.7,29.5
					c-67.2-24.6-162.3-44.2-222.6-23c-0.6,0.2-6.3,46.6-6.9,46.7c-19.4,2.8-38.9-4.7-38.5-32l9.2-141.5l-110.5-14.6l-9.9-3.3
					c-29.9-9.9-45.3-42.9-33.8-72.2c26-66.1,65.1-173.1,137.7-232.1C1433.2,425,1464.2,414.2,1484.1,412z"/>
				<g>
					<g>
						<path class="st0" d="M1534.3,847.4h-172.7c-7.5,0-14-5.1-15.8-12.4L1286,594.1c-2.6-10.3,5.2-20.2,15.8-20.2h172.7
							c7.5,0,14,5.1,15.8,12.4l59.7,240.9C1552.7,837.4,1544.9,847.4,1534.3,847.4z"/>
						<path d="M1534.3,849.7h-172.7c-8.6,0-16-5.8-18.1-14.2l-59.7-240.9c-1.4-5.6-0.1-11.4,3.4-16c3.6-4.5,8.9-7.2,14.7-7.2h172.7
							c8.6,0,16,5.8,18.1,14.2l59.7,240.9c1.4,5.6,0.1,11.4-3.4,16C1545.4,847.1,1540.1,849.7,1534.3,849.7z M1301.9,576.2
							c-4.3,0-8.4,2-11,5.4c-2.7,3.4-3.6,7.8-2.6,12l59.7,240.9c1.6,6.3,7.1,10.6,13.6,10.6h172.7c4.3,0,8.4-2,11-5.4
							s3.6-7.8,2.6-12l-59.7-240.9c-1.6-6.3-7.1-10.6-13.6-10.6H1301.9z"/>
					</g>
					<g>
						<path class="st0" d="M1314.1,697l5.8,24.3l20.9-7c11.5-3.8,22.5-8.9,32.9-15.2l12-7.3c8.9-5.4,20.6-1.2,24,8.7
							c7.4,21,5.9,56.1-69.3,78.1c-41.5,12.2-53.4-41-48-70.5c1.4-7.6,5.1-12.4,8.9-15.4C1305.9,689,1312.7,691.3,1314.1,697z"/>
						<path d="M1329,782.7c-8.2,0-15.6-2.8-21.7-8.3c-15.7-14.1-21-45-17.1-66.7c1.3-7,4.5-12.7,9.7-16.8c2.8-2.2,6.4-2.9,9.7-1.7
							c3.4,1.1,5.9,3.8,6.7,7.3c0,0,0,0,0,0l5.2,21.8l18.5-6.2c11.3-3.8,22.2-8.8,32.4-15l12-7.3c4.8-2.9,10.7-3.5,16-1.6
							c5.4,1.9,9.5,6.1,11.4,11.5c4.6,13,3.9,25.8-1.8,37.1c-9.5,18.6-32.7,33.4-69,44.1C1336.9,782.1,1332.8,782.7,1329,782.7z
							 M1306.3,693.2c-1.3,0-2.5,0.4-3.5,1.3c-4.3,3.4-7,8.1-8.1,14c-3.7,20.5,1.1,49.4,15.6,62.5c7.8,7,17.7,8.9,29.5,5.4
							c35-10.3,57.2-24.3,66.1-41.7c5.3-10.3,5.8-21.5,1.6-33.4c-1.4-4.1-4.6-7.2-8.6-8.7c-4-1.4-8.4-1-12,1.2l-12,7.3
							c-10.5,6.4-21.7,11.6-33.4,15.4l-20.9,7c-0.6,0.2-1.3,0.1-1.9-0.2c-0.6-0.3-1-0.9-1.1-1.5l-5.8-24.3c-0.5-1.9-1.8-3.4-3.7-4
							C1307.5,693.3,1306.9,693.2,1306.3,693.2z"/>
					</g>
				</g>
				<g>
					<path class="st0" d="M1713.5,557.5c8.6,8.8,18.5,16.4,29.2,22.5c36.3,20.6,122.9,70.6,144.4,89c27.4,23.5,40.6,32.2,18.5,92.5
						c-36,98.3-203.6-154.1-203.6-154.1s-49.2,8.9-60.3-34.2c0,0-25.7,4.8-36.4,0.2c-8.2-3.6-7.8-17.5,3.1-19l70.8-13.2
						c9.8-1.7,19.7,1.5,26.7,8.5L1713.5,557.5z"/>
					<path d="M1878.9,786.7c-58.1,0-166.6-159.6-178-176.7c-8.5,1-49.6,4.1-60.9-34.1c-6.5,1.1-26.1,3.8-35.6-0.3
						c-4.9-2.1-7.7-7.5-7-13c0.8-5.6,4.9-9.6,10.7-10.4l70.7-13.2c10.5-1.9,21.3,1.6,28.8,9.2l7.6,7.7c8.5,8.7,18.1,16.1,28.7,22.2
						c36.3,20.7,123.1,70.7,144.8,89.3l2.4,2.1c25.8,22,38.7,33,16.8,93c-5.3,14.6-13.9,22.7-25.4,24.1
						C1881.2,786.6,1880.1,786.7,1878.9,786.7z M1702,605.2c0.8,0,1.5,0.4,1.9,1c1.2,1.8,117.5,175.8,174.8,175.8
						c1.1,0,2.1-0.1,3.1-0.2c9.8-1.2,16.8-8,21.6-21c20.8-57,10.2-66-15.4-87.9l-2.4-2.1c-21.4-18.3-107.9-68.2-144-88.8
						c-10.9-6.2-20.9-13.9-29.7-22.9l-7.6-7.7c-6.4-6.5-15.6-9.5-24.6-7.9l-70.8,13.2c-3.8,0.5-6.3,2.9-6.8,6.5
						c-0.4,2.9,0.8,6.6,4.2,8.1c8.2,3.6,28.1,1,35-0.3c1.2-0.2,2.4,0.5,2.7,1.7c10.4,40.5,55.7,32.9,57.6,32.5
						C1701.7,605.2,1701.9,605.2,1702,605.2z"/>
				</g>
			</g>
			<g>
				<g>
					<path class="st0" d="M1549.3,319.4l-5.3,73.8c-1.2,9.6-8.1,17.5-17.4,19.9l-25.9,6.8l16.8,12.8c37.3,28.4,88.9,28.4,126.2,0.1
						l26.6-20.2l-32.2-7.2c-9.2-2.1-16.4-9.5-18-18.8l-14.2-97.6L1549.3,319.4z"/>
					<path d="M1580.7,456.2c-22.8,0-45.6-7.2-64.6-21.7l-16.8-12.8c-0.7-0.5-1-1.4-0.9-2.3c0.2-0.9,0.8-1.6,1.7-1.8l25.9-6.8
						c8.5-2.2,14.7-9.3,15.7-18l5.3-73.6c0.1-0.8,0.5-1.5,1.2-1.9l56.5-30.4c0.7-0.4,1.5-0.4,2.1,0c0.7,0.3,1.1,1,1.3,1.7l14.2,97.6
						c1.5,8.4,7.9,15,16.2,16.9l32.2,7.2c0.9,0.2,1.6,0.9,1.8,1.8c0.2,0.9-0.1,1.8-0.9,2.3l-26.6,20.2
						C1626.1,449,1603.4,456.2,1580.7,456.2z M1505.9,420.8l13,9.9c36.3,27.6,87,27.7,123.4,0.1l22.6-17.2l-27.3-6.1
						c-10.2-2.3-18-10.4-19.8-20.7l-13.8-94.4l-52.5,28.2l-5.2,72.5c-1.3,10.7-8.8,19.3-19.2,22L1505.9,420.8z"/>
				</g>
				<g>
					<path d="M1465.5,216.7c17.7-9.4,3.5,19.8,61.8-30.6c23.2-20.1,24.1,17.4,30.1,12.2c22.3-19.2,21.5-18.6,35.6-21
						c9.3-1.6,21.8,11.2,25.5,23.4c4.9,16.1-5.8,25.7-2.1,62.7c2.6,26,10.7,38.7,3.2,46.1c-7.6,7.5-19.9-1.7-28.8,5.9
						c-11.5,9.7,1.6,31.4-6.9,46.8c-5.4,9.7-22.9,21.1-59.9,20.2c-6-0.1-11.1-4.6-12-10.5c-1.3-7.6-2.8-17.2-3.5-26.5
						c-3.3-44.3,6.2-59.1-3.2-66.7c-14.4-11.6-38.9,10-49.3-0.2C1445.3,267.8,1441.3,229.6,1465.5,216.7z"/>
					<g>
						<path class="st0" d="M1553.7,241.6l-0.7,12.1c-0.3,5.7-0.3,11.4,0.1,17.1c0.8,10.7,2.1,29.1,2.1,39.5
							c-0.1,15.2-47.1,18.2-47.1,18.2l-6-6.6l-5.5,0.2c-1.1,0-2.2-0.1-3.1-0.6c-2.4-1.2-3.6-3.8-3.1-6.2c2.2-13.4,6.1-43.1,1.8-66.2
							C1492.1,249,1518.3,227.8,1553.7,241.6z"/>
						<path d="M1508.1,330.8c-0.7,0-1.3-0.3-1.7-0.8l-5.2-5.8l-4.4,0.2c-1.6,0.1-3-0.2-4.3-0.9c-3.2-1.7-4.9-5.2-4.4-8.7
							c2-12,6.1-42.3,1.8-65.4c-0.2-0.8,0.2-1.7,0.8-2.2c1.1-0.9,27.6-21.9,63.9-7.8c0.9,0.4,1.5,1.3,1.5,2.3l-0.7,12.1
							c-0.3,5.6-0.3,11.2,0.1,16.8c0.8,10.3,2.1,29.1,2.1,39.7c-0.1,16.9-44.3,20.2-49.3,20.5
							C1508.2,330.8,1508.1,330.8,1508.1,330.8z M1502.1,319.5c0.7,0,1.3,0.3,1.7,0.8l5.2,5.8c17.4-1.3,43.8-6.5,43.8-15.8
							c0.1-10.3-1.3-29-2-39.3c-0.4-5.8-0.5-11.7-0.1-17.4l0.6-10.4c-29.1-10.5-51.6,3.3-56.6,6.9c3.9,22.7,0.4,50.7-2.1,65.6
							c-0.3,1.5,0.5,3.1,1.9,3.8c0.5,0.3,1.2,0.4,1.9,0.4L1502.1,319.5C1502,319.5,1502.1,319.5,1502.1,319.5z"/>
					</g>
					<path class="st0" d="M1562,278.9c0,0,1.7-29.1,14.8-25.5C1589.9,257.1,1587.2,289.2,1562,278.9z"/>
				</g>
			</g>
		</g>
		<g>
			<g>
				<g>
					<g>
						<path class="st0" d="M287.1,764.8l-121.2,1.3c-14.6,0.2-26.4,12.1-26.3,26.8c0,14.9,12.1,26.9,26.9,26.8l120.7-1.3V764.8z"/>
						<path d="M166.2,822c-7.6,0-14.8-3-20.3-8.4c-5.6-5.5-8.6-12.9-8.7-20.7c0-15.9,12.8-29,28.6-29.1l121.2-1.3
							c0.7,0,1.2,0.2,1.7,0.7c0.4,0.4,0.7,1,0.7,1.7v53.6c0,1.3-1,2.3-2.3,2.3L166.5,822C166.4,822,166.3,822,166.2,822z
							 M284.8,767.2l-118.9,1.3c-13.3,0.1-24.1,11.1-24,24.5c0,6.6,2.6,12.8,7.3,17.4c4.6,4.6,10.8,7.1,17.3,7l118.4-1.3V767.2z"/>
					</g>
					<g>
						<path class="st0" d="M814,1797.1c-50.9,0-90.8-50.2-90.8-114.2s39.9-114.2,90.8-114.2c50.9,0,90.8,50.2,90.8,114.2
							S865,1797.1,814,1797.1z M814,1603.1c-28.5,0-52.6,36.5-52.6,79.8c0,43.2,24.1,79.8,52.6,79.8s52.6-36.5,52.6-79.8
							C866.6,1639.6,842.6,1603.1,814,1603.1z"/>
						<path d="M814,1799.4c-52.2,0-93.2-51.2-93.2-116.6c0-65.4,40.9-116.6,93.2-116.6c52.2,0,93.2,51.2,93.2,116.6
							C907.2,1748.2,866.3,1799.4,814,1799.4z M814,1570.9c-49.6,0-88.5,49.2-88.5,111.9s38.9,111.9,88.5,111.9
							c49.6,0,88.5-49.2,88.5-111.9S863.7,1570.9,814,1570.9z M814,1764.9c-29.8,0-54.9-37.6-54.9-82.1c0-44.5,25.1-82.1,54.9-82.1
							c29.8,0,54.9,37.6,54.9,82.1C869,1727.3,843.8,1764.9,814,1764.9z M814,1605.4c-27.3,0-50.3,35.5-50.3,77.4
							c0,42,23,77.4,50.3,77.4c27.2,0,50.3-35.5,50.3-77.4C864.3,1640.8,841.3,1605.4,814,1605.4z"/>
					</g>
					<g>
						<path class="st0" d="M389.5,1797.1c-71.4,0-137.9-36.8-187.3-103.7c-47.9-64.7-74.2-150.5-74.2-241.4
							c0-91,26.4-176.7,74.2-241.4c49.4-66.9,116-103.7,187.3-103.7c71.4,0,137.9,36.8,187.3,103.7c47.9,64.7,74.2,150.5,74.2,241.4
							c0,91-26.4,176.7-74.2,241.4C527.4,1760.2,460.9,1797.1,389.5,1797.1z M389.5,1141.2c-58.2,0-113.4,31.4-155.5,88.4
							c-43.7,59.1-67.8,138.1-67.8,222.3c0,84.2,24.1,163.2,67.8,222.3c42.1,57,97.4,88.4,155.5,88.4c58.2,0,113.4-31.4,155.5-88.4
							c43.7-59.1,67.8-138.1,67.8-222.3c0-84.2-24.1-163.2-67.8-222.3C502.9,1172.6,447.7,1141.2,389.5,1141.2z"/>
						<path d="M389.5,1799.4c-72.1,0-139.3-37.2-189.2-104.7c-48.2-65.1-74.7-151.4-74.7-242.8c0-91.4,26.5-177.7,74.7-242.8
							c49.9-67.5,117.1-104.7,189.2-104.7c72.1,0,139.3,37.2,189.2,104.7c48.2,65.1,74.7,151.4,74.7,242.8
							c0,91.4-26.5,177.7-74.7,242.8C528.8,1762.2,461.6,1799.4,389.5,1799.4z M389.5,1109.1c-70.6,0-136.5,36.5-185.5,102.8
							c-47.6,64.3-73.8,149.6-73.8,240c0,90.5,26.2,175.7,73.8,240c49,66.3,114.9,102.8,185.5,102.8c70.6,0,136.5-36.5,185.5-102.8
							c47.6-64.3,73.8-149.6,73.8-240c0-90.5-26.2-175.7-73.8-240C526,1145.6,460.1,1109.1,389.5,1109.1z M389.5,1764.9
							c-58.9,0-114.8-31.7-157.4-89.3c-44-59.5-68.2-139-68.2-223.7c0-84.7,24.2-164.1,68.2-223.7c42.6-57.6,98.5-89.3,157.4-89.3
							c58.9,0,114.8,31.7,157.4,89.3c44,59.5,68.2,139,68.2,223.7c0,84.7-24.2,164.1-68.2,223.7
							C504.3,1733.2,448.4,1764.9,389.5,1764.9z M389.5,1143.6c-57.4,0-112,31-153.6,87.4c-43.4,58.7-67.3,137.2-67.3,220.9
							c0,83.7,23.9,162.2,67.3,220.9c41.7,56.4,96.2,87.4,153.6,87.4c57.4,0,112-31,153.6-87.4c43.4-58.7,67.3-137.2,67.3-220.9
							c0-83.7-23.9-162.2-67.3-220.9C501.5,1174.6,446.9,1143.6,389.5,1143.6z"/>
					</g>
					<g>
						<g>
							<g>
								<path class="st0" d="M295.5,878.2c55.1-33.8,126.2-22.2,168.1,24.5c0.4,0.4,0.7,0.8,1.1,1.2c32.3,31.7,101.1,64,207.3,77.5
									c22,2.8,27.7,34.9,25.8,55.9l-0.4,4.5c-1,10.8-10,19.6-21.4,20.8c-74.2,7.8-335.1,20.4-382.5-183L295.5,878.2z"/>
								<path d="M607.2,1068.3c-108.2,0-278.4-26.7-316-188.4c-0.2-1,0.2-2,1-2.5l2-1.2c55.6-34.1,127.5-23.6,171,24.9
									c0.3,0.4,0.7,0.7,1,1c17.8,17.5,73.6,60,206,76.8c23.9,3,29.8,37.4,27.8,58.4l-0.4,4.5c-1.1,11.9-11,21.6-23.4,22.9
									C659.9,1066.5,635.7,1068.3,607.2,1068.3z M296.1,880.5c47.7,198.9,302.5,187.8,379.6,179.6c10.3-1.1,18.4-8.9,19.3-18.7
									l0.4-4.5c1.8-19.2-3.1-50.7-23.8-53.4c-94.2-12-170.3-40.4-208.6-78.1c-0.4-0.4-0.8-0.8-1.2-1.3
									c-42-46.9-111.5-57-165.2-24.1L296.1,880.5z M295.5,878.2L295.5,878.2L295.5,878.2z"/>
							</g>
							<g>
								<g>
									<g>
										<path class="st0" d="M817.3,1515.6l10.3,82.1c0.2,2.3,2.2,4.1,4.2,3.7l40.2-6.4c1.7-0.3,2.9-2,2.7-4l-10.4-95
											L817.3,1515.6z"/>
										<path d="M831.4,1603.8c-1.2,0-2.4-0.4-3.5-1.2c-1.4-1.1-2.4-2.8-2.6-4.6l-10.3-82.1c-0.1-1,0.4-2,1.4-2.4l47.1-19.5
											c0.7-0.3,1.4-0.2,2.1,0.1c0.6,0.4,1,1,1.1,1.7l10.4,95c0.3,3.3-1.7,6.1-4.7,6.5l-40.2,6.4
											C831.9,1603.8,831.6,1603.8,831.4,1603.8z M819.9,1517.1l10,80.4c0.1,0.6,0.4,1.2,0.8,1.5c0.2,0.1,0.4,0.3,0.8,0.3
											l40.2-6.4c0.5-0.1,0.8-0.7,0.8-1.5l-10-91.9L819.9,1517.1z"/>
									</g>
									<g>
										<path class="st0" d="M822.3,1571.4c-2.7,9.7-8.4,37.2-10.8,53.7c-1.5,10.4,5,20.1,15,22.9c28.1,7.7,95.4,7.3,151.4,9.8
											c3.8,0.2,10.9-1.7,14-11.1c10.7-31.7-48.2-41.5-106.4-73.8c-1.1-0.6-2.5-0.6-3.6,0.2c-0.7,0.5-1.5,1.1-2.5,1.7
											c-10.1,6.5-26.9,6.5-37.2,0.3l-11.6-7C827.4,1566.1,823.3,1567.8,822.3,1571.4z"/>
										<path d="M978.4,1660c-0.2,0-0.4,0-0.6,0c-14.3-0.6-29.6-1.1-44.4-1.5c-44.4-1.3-86.3-2.6-107.5-8.4
											c-11.1-3-18.3-14-16.6-25.4c2.4-16.4,8-43.8,10.8-53.9c0.7-2.4,2.4-4.4,4.7-5.3c2.3-0.9,4.9-0.7,7,0.6l11.6,7
											c9.6,5.8,25.5,5.7,34.8-0.2c1-0.6,1.8-1.2,2.4-1.6c1.8-1.3,4.1-1.4,6.1-0.3c17.5,9.7,35.3,17.5,51,24.3
											c37.5,16.3,64.6,28.1,56.5,52.2C991,1656.8,983.8,1660,978.4,1660z M824.5,1572c-2.7,9.9-8.4,37.5-10.7,53.4
											c-1.3,9.1,4.4,17.9,13.3,20.3c20.7,5.6,62.3,6.9,106.5,8.2c14.8,0.4,30.1,0.9,44.4,1.5c1.4,0.1,8.6-0.1,11.7-9.5
											c6.7-20.1-18.7-31.2-53.9-46.5c-15.8-6.9-33.6-14.6-51.4-24.5c-0.4-0.2-0.8-0.2-1.1,0c-0.7,0.5-1.6,1.1-2.6,1.8
											c-10.8,6.9-28.6,7-39.7,0.3l-11.6-7c-0.9-0.5-1.9-0.6-2.9-0.2C825.5,1570.2,824.8,1571,824.5,1572z"/>
									</g>
									<g>
										<path class="st0" d="M809.8,1632.5c-0.1,0.3-0.1,0.5-0.1,0.6c-1.5,10.4,8.3,16.7,17.6,21.1c27.7,13.1,139.7,5.6,144,5.3
											c0.1,0,0.2,0,0.2,0c1.4,0,15.6,0,19.7-8.9c0.5-1.1,0.8-2.7,1-4.1c0.3-2.4,0.2-4.8-0.4-7.1c-0.4-1.9-2.3-3.1-4.2-2.6
											c-20.8,5.3-69.3,7.1-117.8,1.7c-32.2-3.6-46.2-10.6-53.7-15.1c-2-1.2-4.6,0-5.1,2.3
											C810.8,1627.7,810.3,1630.1,809.8,1632.5z"/>
										<path d="M901.1,1664.2c-30.3,0-61.7-1.7-74.8-7.9c-9-4.2-20.7-11.3-18.9-23.6c0-0.1,0.1-0.4,0.1-0.7c0,0,0,0,0,0l1.3-6.8
											c0.4-1.9,1.6-3.4,3.3-4.2c1.7-0.8,3.7-0.6,5.2,0.3c7.8,4.7,21.9,11.4,52.8,14.8c50.1,5.6,97.7,3.3,117-1.7
											c1.5-0.4,3.1-0.2,4.4,0.7c1.3,0.8,2.3,2.2,2.6,3.7c0.6,2.7,0.7,5.4,0.4,7.9c-0.3,2-0.7,3.6-1.2,4.8
											c-4.7,10.2-20.1,10.2-21.8,10.2C969,1662,935.8,1664.2,901.1,1664.2z M812.1,1632.9l-0.1,0.5c-1,7.1,4,12.9,16.3,18.7
											c27.1,12.8,138.1,5.4,142.9,5.1c0.2,0,0.3,0,0.4,0c0.5,0,14,0.1,17.5-7.5c0.2-0.5,0.6-1.5,0.8-3.4c0.3-2,0.2-4.1-0.3-6.3
											c-0.1-0.3-0.3-0.6-0.5-0.8c-0.2-0.1-0.4-0.2-0.8-0.1c-19.7,5.1-68,7.4-118.6,1.8c-31.8-3.5-46.4-10.5-54.7-15.5
											c-0.4-0.2-0.8-0.1-1-0.1c-0.2,0.1-0.5,0.3-0.7,0.8L812.1,1632.9z"/>
									</g>
									<path d="M889.5,1600.8c-0.7,0-1.4-0.3-1.8-0.9c-0.8-1-0.6-2.5,0.4-3.3l17-13c1-0.8,2.5-0.6,3.3,0.4c0.8,1,0.6,2.5-0.4,3.3
										l-17,13C890.5,1600.7,890,1600.8,889.5,1600.8z"/>
									<path d="M912.1,1610.1c-0.7,0-1.4-0.3-1.9-0.9c-0.8-1-0.6-2.5,0.5-3.3l14.9-11.2c1-0.8,2.5-0.6,3.3,0.5
										c0.8,1,0.6,2.5-0.5,3.3l-14.9,11.2C913.1,1610,912.6,1610.1,912.1,1610.1z"/>
								</g>
								<g>
									<g>
										<path class="st0" d="M763.4,1524l30.2,77c0.8,2.2,3.1,3.4,5,2.6l37.4-16.2c1.6-0.7,2.3-2.7,1.6-4.5l-26.9-70.2L763.4,1524
											z"/>
										<path d="M797.3,1606.1c-0.8,0-1.6-0.2-2.3-0.5c-1.7-0.7-3-2.1-3.6-3.9l-30.1-77c-0.2-0.6-0.2-1.3,0.1-1.9
											c0.3-0.6,0.9-1,1.5-1.2l47.3-11.4c1.1-0.3,2.3,0.3,2.7,1.4l26.9,70.2c1.1,3.1-0.1,6.3-2.9,7.5l-37.4,16.2
											C798.8,1606,798,1606.1,797.3,1606.1z M766.5,1525.6l29.2,74.5c0.2,0.6,0.6,1,1.1,1.2c0.2,0.1,0.5,0.2,0.8,0l37.4-16.2
											c0.5-0.2,0.6-0.9,0.4-1.6l-26.2-68.3L766.5,1525.6z"/>
									</g>
									<g>
										<path class="st0" d="M777.1,1571.4c-2.7,9.7-8.4,37.2-10.8,53.7c-1.5,10.4,5,20.1,15,22.9c28.1,7.7,95.4,7.3,151.4,9.8
											c3.8,0.2,10.9-1.7,14-11.1c10.7-31.7-48.2-41.5-106.4-73.8c-1.1-0.6-2.5-0.6-3.6,0.2c-0.7,0.5-1.5,1.1-2.5,1.7
											c-10.1,6.5-26.9,6.5-37.2,0.3l-11.6-7C782.2,1566.1,778.1,1567.8,777.1,1571.4z"/>
										<path d="M933.2,1660c-0.2,0-0.4,0-0.6,0c-14.3-0.6-29.6-1.1-44.4-1.5c-44.4-1.3-86.3-2.6-107.5-8.4
											c-11.1-3-18.3-14-16.6-25.4c2.4-16.4,8-43.8,10.8-53.9c0.7-2.4,2.4-4.4,4.7-5.3c2.3-0.9,4.9-0.7,7,0.6l11.6,7
											c9.6,5.8,25.5,5.7,34.8-0.2c1-0.6,1.8-1.2,2.4-1.6c1.8-1.3,4.1-1.4,6.1-0.3c17.5,9.7,35.3,17.5,51,24.3
											c37.5,16.3,64.6,28.1,56.5,52.2C945.8,1656.8,938.6,1660,933.2,1660z M779.3,1572c-2.7,9.9-8.4,37.5-10.7,53.4
											c-1.3,9.1,4.4,17.9,13.3,20.3c20.7,5.6,62.3,6.9,106.5,8.2c14.8,0.4,30.1,0.9,44.4,1.5c1.4,0.1,8.6-0.1,11.7-9.5
											c6.7-20.1-18.7-31.2-53.9-46.5c-15.8-6.9-33.6-14.6-51.4-24.5c-0.4-0.2-0.8-0.2-1.1,0c-0.7,0.5-1.6,1.1-2.6,1.8
											c-10.8,6.9-28.6,7-39.7,0.3l-11.6-7c-0.9-0.5-1.9-0.6-2.9-0.2C780.3,1570.2,779.6,1571,779.3,1572z"/>
									</g>
									<g>
										<path class="st0" d="M764.6,1632.5c-0.1,0.3-0.1,0.5-0.1,0.6c-1.5,10.4,8.3,16.7,17.6,21.1c27.7,13.1,139.7,5.6,144,5.3
											c0.1,0,0.2,0,0.2,0c1.4,0,15.6,0,19.7-8.9c0.5-1.1,0.8-2.7,1-4.1c0.3-2.4,0.2-4.8-0.4-7.1c-0.4-1.9-2.3-3.1-4.2-2.6
											c-20.8,5.3-69.3,7.1-117.8,1.7c-32.2-3.6-46.2-10.6-53.7-15.1c-2-1.2-4.6,0-5.1,2.3
											C765.6,1627.7,765.1,1630.1,764.6,1632.5z"/>
										<path d="M855.9,1664.2c-30.3,0-61.7-1.7-74.8-7.9c-9-4.2-20.7-11.3-18.9-23.6c0-0.1,0.1-0.4,0.1-0.7c0,0,0,0,0,0l1.3-6.8
											c0.4-1.9,1.6-3.4,3.3-4.2c1.7-0.8,3.7-0.6,5.3,0.3c7.8,4.7,21.9,11.4,52.8,14.8c50.1,5.6,97.7,3.3,117-1.7
											c1.5-0.4,3.1-0.2,4.4,0.7c1.3,0.8,2.3,2.2,2.6,3.7c0.6,2.7,0.7,5.4,0.4,7.9c-0.3,2-0.7,3.6-1.2,4.8
											c-4.7,10.2-20.1,10.2-21.8,10.2C923.8,1662,890.6,1664.2,855.9,1664.2z M766.9,1632.9l-0.1,0.5c-1,7.1,4,12.9,16.3,18.7
											c27.1,12.8,138.1,5.4,142.9,5.1c0.2,0,0.3,0,0.4,0c0.6,0,14,0.1,17.5-7.5c0.2-0.5,0.6-1.5,0.8-3.4c0.3-2,0.2-4.1-0.3-6.3
											c-0.1-0.3-0.3-0.6-0.5-0.8c-0.2-0.1-0.4-0.2-0.8-0.1c-19.7,5.1-68,7.4-118.6,1.8c-31.8-3.5-46.4-10.5-54.7-15.5
											c-0.4-0.2-0.8-0.1-1-0.1c-0.2,0.1-0.5,0.3-0.7,0.8L766.9,1632.9z"/>
									</g>
									<path d="M844.3,1600.8c-0.7,0-1.4-0.3-1.8-0.9c-0.8-1-0.6-2.5,0.4-3.3l17-13c1-0.8,2.5-0.6,3.3,0.4c0.8,1,0.6,2.5-0.4,3.3
										l-17,13C845.3,1600.7,844.8,1600.8,844.3,1600.8z"/>
									<path d="M866.9,1610.1c-0.7,0-1.4-0.3-1.9-0.9c-0.8-1-0.6-2.5,0.5-3.3l14.9-11.2c1-0.8,2.5-0.6,3.3,0.5
										c0.8,1,0.6,2.5-0.5,3.3l-14.9,11.2C867.9,1610,867.4,1610.1,866.9,1610.1z"/>
								</g>
								<g>
									<path d="M869.6,1507.5c0,0,10.2-135.5-34-332.6c-33.3-148.2-346.8-107.1-346.8-107.1l-107.7,168.4l307.5,3.3l111,273.6
										c8.1,0.3,47.2,2.5,54.9-0.2L869.6,1507.5z"/>
									<path d="M289.9,1003.9c0,0-46.3,259.7,100.9,260.4c88,0.4,153.4,1.9,185.9,0.5c23.4-1,48.9,4.8,56.4,27.1l112.8,239.4
										c4.8,10.2,15.1,16.8,26.4,16.3c10.3-0.4,24.3-3.2,41.7-11.9c9.6-4.8,14.8-15.4,12.8-26c-11.2-58.2-49.7-253.1-84.9-355.2
										c-35.6-103.4-333.5-86.2-333.5-86.2L289.9,1003.9z"/>
									<path class="st0" d="M836.1,1528.6c-1.1,0-2.1-0.8-2.3-1.9c-8.5-51.8-48.6-265.2-89.3-362.4
										c-20.1-48-133.3-59.2-216.7-63.5c-1.3-0.1-2.3-1.2-2.2-2.4c0.1-1.3,1.2-2.3,2.4-2.2c84.6,4.4,199.6,16,220.8,66.4
										c40.9,97.6,81.1,311.5,89.6,363.4c0.2,1.3-0.6,2.5-1.9,2.7C836.3,1528.6,836.2,1528.6,836.1,1528.6z"/>
								</g>
							</g>
							<g>
								<path class="st0" d="M283.1,1046.5c0,0-11.6,49.2,63.4,44.2c75-4.9,206.4-29.5,206.4-29.5c-12.6-76.8-17.6-202.9-16.4-225.4
									c8-152.3-157.9-120.7-157.9-120.7c-41.3,2.1-145.7,25.9-140.5,100.9C244,901.7,273.7,944.7,283.1,1046.5z"/>
								<path d="M336.3,1093.4c-22.6,0-38.7-5.5-47.9-16.4c-10.7-12.6-8.2-28-7.6-30.7c-4.8-51.1-14.6-87-24.1-121.7
									c-9.3-33.9-18-66-20.9-108.6c-1.4-20.2,4.9-38.3,18.6-53.7c31.8-35.9,94.9-48.1,124-49.6c5.1-0.9,80.8-14.2,126.9,26
									c24.5,21.4,35.8,54.1,33.6,97.1c-1.2,23,3.9,148.9,16.4,224.9c0.2,1.2-0.6,2.4-1.9,2.7c-1.3,0.2-132.4,24.6-206.7,29.5
									C343.1,1093.3,339.6,1093.4,336.3,1093.4z M285.4,1047c-0.1,0.2-3.4,15.3,6.6,27c9.6,11.3,27.9,16.1,54.4,14.3
									c68.7-4.5,186.3-25.8,203.9-29C538,982.8,533,858.5,534.2,835.7c2.2-41.5-8.6-72.9-32-93.4c-45-39.3-122.4-25.1-123.2-25
									c-0.1,0-0.2,0-0.3,0c-28.3,1.4-90,13.3-120.9,48.1c-12.8,14.5-18.7,31.4-17.4,50.3c2.9,42.2,11.6,74,20.8,107.7
									c9.6,35,19.4,71.2,24.2,122.8C285.5,1046.5,285.5,1046.8,285.4,1047z"/>
							</g>
							<g>
								<path class="st0" d="M702.9,1024.9c13.5,7.6,36.7-0.3,40.4-2.2c11.8-6.1,39.4,0.3,39.4,0.3s10.3,3.6,14.3,1.5l1.1-0.5
									c4.2-2.1,4.5-8.3,0.5-11.2l-39-27.9c-5-3.6-13.8-10.3-22.5-7.8l-30.8,9.9c-23.9,8.4-31.6-1.9-44.1,9.9
									c-16.8,15.9,0.7,29.8,19.3,30.1C691.3,1027.1,702.9,1024.9,702.9,1024.9z"/>
								<path d="M717.5,1030.5c-5.3,0-10.5-0.8-15-3.1c-2.9,0.5-12.6,2.1-21.2,1.9c-12.9-0.2-24.2-6.2-27.4-14.6
									c-1.7-4.4-2-11.4,6.6-19.5c7.4-7,13.7-6.9,20.9-6.9c5.9,0.1,13.3,0.2,24-3.6l30.9-9.9c9.6-2.8,18.7,3.9,24.2,7.8l0.4,0.3
									l39,27.9c2.6,1.9,4.1,5,3.8,8.2c-0.2,3-1.9,5.6-4.6,7l-1.1,0.5c-4.6,2.3-13.9-0.6-16-1.4c-1.9-0.4-27.1-5.9-37.7-0.4
									C742.2,1025.9,729.8,1030.5,717.5,1030.5z M702.9,1022.6c0.4,0,0.8,0.1,1.1,0.3c11.9,6.7,33.7,0,38.2-2.3
									c12.4-6.4,39.8-0.2,40.9,0.1c0.1,0,0.2,0,0.2,0.1c3.9,1.3,10.3,2.8,12.5,1.7l1-0.5c1.2-0.6,1.9-1.8,2-3.2
									c0.1-1.6-0.6-3.2-1.9-4.1l-39.4-28.2c-4.8-3.5-12.7-9.3-20.1-7.1l-30.8,9.9c-11.4,4-19.2,3.9-25.5,3.8
									c-7-0.1-11.6-0.2-17.7,5.6c-3.7,3.5-7.6,8.8-5.4,14.4c2.5,6.5,12.5,11.5,23.2,11.7c9.5,0.2,21-1.9,21.1-2
									C702.6,1022.6,702.8,1022.6,702.9,1022.6z"/>
							</g>
							<path d="M422.3,980c-16,0-28.6-3.1-36.6-9.5c-30.9-24.5-49.2-127.7-49.9-132.1c-0.2-1.3,0.6-2.5,1.9-2.7
								c1.3-0.2,2.5,0.6,2.7,1.9c0.2,1.1,18.7,105.8,48.2,129.2c16.4,13,54.7,11.2,102.3-4.8c1.2-0.4,2.5,0.2,2.9,1.5
								c0.4,1.2-0.2,2.5-1.5,2.9C465.6,975.5,441.5,980,422.3,980z"/>
							<path d="M354,1067.6c-30.3,0-55.3-20-72.6-58.4c-13.8-30.7-18-62.8-18-63.1c-0.2-1.3,0.7-2.4,2-2.6c1.3-0.2,2.4,0.7,2.6,2
								c0.2,1.2,16.4,124.5,92.5,117.1c89.7-8.8,163.9-61.3,164.6-61.8c1-0.7,2.5-0.5,3.2,0.5c0.7,1,0.5,2.5-0.5,3.2
								c-0.7,0.5-75.9,53.8-166.9,62.7C358.6,1067.5,356.3,1067.6,354,1067.6z"/>
							<g>
								<path class="st0" d="M519.6,988c0.1,0,17.9,5,34.6-5.7c16.7-10.7,30.7-15.1,30.9-24.8c0.2-9.7,33.6-12.3,35.4-19.6
									c2.3-10-1.3-22.7-34.3-19.2c-31.4,3.3-52.1,42.1-71.4,39.3c-1.6-0.2-3.1,0.9-3.3,2.6L519.6,988z"/>
								<path d="M530,991.5c-6.6,0-11.1-1.3-11.2-1.3c-0.7-0.3-1.2-0.8-1.4-1.5l-8.2-27.4c-0.1-0.3-0.1-0.6-0.1-0.9
									c0.2-1.4,0.9-2.7,2-3.6c1.1-0.9,2.5-1.2,3.9-1c8.1,1.1,17.1-6.5,27.6-15.4c12.2-10.4,26-22.1,43.2-23.9
									c16.9-1.8,28.3,0.5,33.8,6.7c3.4,3.9,4.5,9.2,3,15.4c-1.1,4.6-8.3,6.9-17.5,9.8c-7.5,2.4-17.7,5.6-17.8,9.3
									c-0.2,8.4-8.3,13-19.4,19.3c-3.8,2.1-8.1,4.6-12.5,7.4C546.4,990.1,537,991.5,530,991.5z M521.5,986.1
									c4.1,0.8,18.2,2.8,31.5-5.7c4.5-2.9,8.9-5.4,12.7-7.5c9.8-5.6,16.9-9.6,17.1-15.4c0.2-7,10.8-10.3,21.1-13.6
									c5.2-1.7,13.9-4.4,14.4-6.4c1.1-4.7,0.4-8.5-2-11.2c-4.4-5-14.7-6.7-29.8-5.1c-15.8,1.7-29,12.9-40.7,22.9
									c-11.3,9.6-21.1,17.9-31.2,16.5c-0.2,0-0.4,0.1-0.4,0.1c0,0-0.1,0.1-0.1,0.2L521.5,986.1z"/>
							</g>
							<path d="M507.6,890.8c-0.1,0-0.1,0-0.2,0c-1.3-0.1-2.2-1.2-2.1-2.5c4.1-52-2.1-83.5-20.2-102.2c-0.9-0.9-0.9-2.4,0-3.3
								c0.9-0.9,2.4-0.9,3.3,0c19.1,19.7,25.8,52.4,21.5,105.8C509.8,889.8,508.8,890.8,507.6,890.8z"/>
						</g>
						<g>
							<path d="M432.2,556.4c-7.9,10.1-7.5,24.4,1.6,33.5c10,10,20.8,23.9,25.5,40.2c9.7,33.8-12.3,51-58.7,39.4
								c-46.4-11.6-49.2-4.5-95.6,8.8c-46.3,13.3-62.1-1.6-56-39.7c6-38.1,55.6-77.1,76.3-80.7c1.8-0.3,5.2-1.7,9.9-3.8
								c18.5-8.5,24.5-19.7,33.1-25.9c21.4-15.3,65.4-4,69.1,12.3C438.3,545,436.9,550.3,432.2,556.4z"/>
							<path d="M338.2,518c10.6,12.6,14.2,33.2,5.9,40.1c-8.2,6.9-25.2-2.5-35.7-15.1c-10.6-12.6-10.8-23.7-2.6-30.6
								C314,505.5,327.6,505.4,338.2,518z"/>
							<g>
								<path class="st0" d="M332.9,606.4c2.9-1.5,6.5-1,9.9,1.1c2.1-5.9,4.4-10.8,4.4-10.8c3.4-25.9,51.4-26.4,51.4-26.4l1.8,0.3
									c5,9.9,8.5,18.9,10.7,26.9c0.6,2.2,1.7,4.2,3.2,5.8l6.7,7c2.3,2.4,2.1,6.3-0.5,8.4L415,623c4.5,34-15.2,33.9-15.2,33.9
									c-2.9,0.2-5.6,0.2-8.3,0c3.2,18.3,13.8,52.4,48.5,61.7c3.7,1,4.5,5.8,1.2,7.8c-17.1,10.1-58.3,27.5-113.1,5.8
									c-4-1.6-4.2-7-0.5-9.1c13-7.1,31.5-27.1,24.4-83.9c-1.7-1.6-3.2-3.2-4.5-4.6c-5.3,2.5-12.7-1.5-16.7-9.1
									C326.6,617.8,327.6,609.2,332.9,606.4z"/>
								<path d="M380.1,744.8c-15.6,0-33.4-2.8-52.8-10.5c-2.7-1.1-4.4-3.5-4.6-6.3c-0.2-2.9,1.3-5.5,3.9-6.9
									c11.6-6.3,30-25.2,23.3-80.8c-1-1-2-2-2.9-3c-6.2,1.7-13.9-2.7-18.1-10.7c-2.2-4.2-3.2-8.7-2.8-12.8
									c0.5-4.4,2.5-7.8,5.8-9.5c0,0,0,0,0,0c2.8-1.5,6.2-1.5,9.7-0.1c1.5-4,2.9-7.2,3.4-8.2c4-27.2,51.6-28.1,53.6-28.1
									c0.2,0,0.3,0,0.4,0l1.8,0.3c0.7,0.1,1.3,0.6,1.7,1.2c4.8,9.5,8.4,18.6,10.9,27.3c0.5,1.9,1.5,3.5,2.7,4.8l6.7,7
									c1.5,1.6,2.3,3.8,2.2,6c-0.1,2.2-1.2,4.3-2.9,5.7l-4.4,3.6c1.6,13.3-0.4,23.2-5.7,29.3c-5.2,5.9-11.7,5.9-11.9,5.9
									c-1.7,0.1-3.5,0.2-5.5,0.1c3.8,18.8,14.8,48.6,46.3,57c2.6,0.7,4.5,2.9,4.9,5.5c0.4,2.6-0.9,5.1-3.2,6.5
									C432.1,734.5,410,744.8,380.1,744.8z M347.5,632.3c0.6,0,1.3,0.3,1.7,0.8c1.3,1.4,2.7,2.9,4.3,4.4c0.4,0.4,0.6,0.9,0.7,1.4
									c7.3,58.9-12.9,79.3-25.6,86.2c-1,0.5-1.5,1.5-1.4,2.6c0.1,1,0.7,1.9,1.7,2.3c54.8,21.7,95.9,3.3,111.1-5.6
									c1-0.6,1-1.5,0.9-1.9c0-0.3-0.3-1.4-1.5-1.7c-35.6-9.6-46.7-43.9-50.2-63.6c-0.1-0.7,0.1-1.4,0.6-1.9
									c0.5-0.5,1.2-0.8,1.9-0.8c2.8,0.2,5.4,0.2,8,0c0.3,0,4.9-0.1,8.7-4.4c4.5-5.2,6-14.5,4.4-26.8c-0.1-0.8,0.2-1.6,0.8-2.1
									l5.4-4.4c0.7-0.6,1.2-1.5,1.2-2.4c0.1-1-0.3-1.9-0.9-2.6l-6.7-7c-1.8-1.8-3.1-4.2-3.8-6.8c-2.3-8-5.6-16.6-10-25.4l-0.4-0.1
									c-3.4,0.1-45.9,1.6-48.9,24.4c0,0.2-0.1,0.5-0.2,0.7c0,0-2.2,4.9-4.3,10.6c-0.2,0.7-0.8,1.2-1.4,1.4c-0.7,0.2-1.4,0.2-2-0.2
									c-2.8-1.7-5.5-2.1-7.6-1c-1.9,1-3.1,3.1-3.4,5.9c-0.3,3.2,0.5,6.8,2.2,10.1c3.4,6.4,9.6,10,13.7,8.1
									C346.9,632.4,347.2,632.3,347.5,632.3z"/>
							</g>
							<path d="M391.6,659.2C391.5,659.2,391.5,659.2,391.6,659.2c-20.8-0.6-27.2-12-27.4-12.5c-0.6-1.1-0.2-2.5,1-3.1
								c1.1-0.6,2.5-0.2,3.1,0.9c0.2,0.4,5.6,9.6,23.4,10.1c1.3,0,2.3,1.1,2.3,2.4C393.8,658.2,392.8,659.2,391.6,659.2z"/>
						</g>
					</g>
					<g>
						<g>
							<polygon class="st0" points="710.1,1264.6 277.5,1265.6 277.5,1300.8 710.1,1299.7 							"/>
							<path d="M277.5,1303.1c-0.6,0-1.2-0.2-1.6-0.7c-0.4-0.4-0.7-1-0.7-1.6l0-35.1c0-1.3,1-2.3,2.3-2.3l432.6-1
								c0.7-0.1,1.2,0.2,1.6,0.7c0.4,0.4,0.7,1,0.7,1.6v35.1c0,1.3-1,2.3-2.3,2.3L277.5,1303.1
								C277.5,1303.1,277.5,1303.1,277.5,1303.1z M279.8,1268l0,30.5l428-1v-30.5L279.8,1268z"/>
						</g>
						<g>
							<polygon class="st0" points="1008.2,1662.1 684.4,1663.2 684.4,1698.3 1008.2,1697.3 							"/>
							<path d="M684.4,1700.6c-0.6,0-1.2-0.2-1.6-0.7c-0.4-0.4-0.7-1-0.7-1.6l0-35.1c0-1.3,1-2.3,2.3-2.3l323.9-1
								c0.6,0.1,1.2,0.2,1.6,0.7c0.4,0.4,0.7,1,0.7,1.6v35.1c0,1.3-1,2.3-2.3,2.3L684.4,1700.6
								C684.4,1700.6,684.4,1700.6,684.4,1700.6z M686.7,1665.5l0,30.5l319.2-1v-30.5L686.7,1665.5z"/>
						</g>
						<g>
							<path class="st0" d="M719.2,1698.3l-34.9,0.1l-0.2-485c0-21.1-17.1-38.1-38-38.1l-371.1,1.1l-0.1-35.1l375-1.1
								c38.1-0.1,69,30.9,69.1,69.2L719.2,1698.3z"/>
							<path d="M684.3,1700.6c-0.6,0-1.2-0.2-1.6-0.7c-0.4-0.4-0.7-1-0.7-1.6l-0.2-485c0-19.7-16-35.8-35.6-35.8c0,0,0,0-0.1,0
								l-371.1,1.1c-0.6,0-1.2-0.2-1.6-0.7c-0.4-0.4-0.7-1-0.7-1.6l-0.1-35.1c0-1.3,1-2.3,2.3-2.3l375-1.1c0,0,0.1,0,0.1,0
								c39.2,0,71.2,32.1,71.2,71.5l0.2,488.9c0,1.3-1,2.3-2.3,2.3L684.3,1700.6C684.3,1700.6,684.3,1700.6,684.3,1700.6z
								 M646.1,1172.9c22.2,0,40.2,18.1,40.3,40.4l0.2,482.6l30.3-0.1l-0.2-486.6c-0.1-36.9-29.9-66.9-66.6-66.9c0,0-0.1,0-0.1,0
								l-372.7,1.1l0.1,30.5L646.1,1172.9C646,1172.9,646.1,1172.9,646.1,1172.9z"/>
						</g>
						<g>
							<path class="st0" d="M91.7,804.6v35.1h116.1c21,0,38,17.1,38,38.2v574.3h34.9V874c0-38.3-30.9-69.3-68.9-69.3H91.7z"/>
							<path d="M280.7,1454.6h-34.9c-1.3,0-2.3-1-2.3-2.3V877.9c0-19.8-16-35.9-35.6-35.9H91.7c-1.3,0-2.3-1-2.3-2.3v-35.1
								c0-1.3,1-2.3,2.3-2.3h120.1c39.3,0,71.2,32.1,71.2,71.7v578.3C283,1453.5,281.9,1454.6,280.7,1454.6z M248.1,1449.9h30.3V874
								c0-37-29.9-67-66.6-67H94v30.5h113.8c22.2,0,40.3,18.2,40.3,40.5V1449.9z"/>
						</g>
						<g>
							<path class="st0" d="M152.5,794.6l-121.2,1.3C16.7,796,4.9,808,4.9,822.7c0,14.9,12.1,26.9,26.9,26.8l120.7-1.3V794.6z"/>
							<path d="M31.5,851.8c-7.6,0-14.8-3-20.3-8.4c-5.6-5.5-8.6-12.9-8.6-20.7c0-15.9,12.8-29,28.6-29.1l121.2-1.3
								c0.7,0,1.2,0.2,1.7,0.7c0.4,0.4,0.7,1,0.7,1.7v53.6c0,1.3-1,2.3-2.3,2.3l-120.7,1.3C31.7,851.8,31.6,851.8,31.5,851.8z
								 M150.2,796.9l-118.9,1.3c-13.3,0.1-24.1,11.1-24,24.5c0,6.6,2.6,12.8,7.3,17.4c4.6,4.6,10.8,7.1,17.3,7l118.4-1.3V796.9z"/>
						</g>
						<g>
							<g>
								<path class="st0" d="M263.9,1797.1c-71.4,0-137.9-36.8-187.3-103.7c-47.9-64.7-74.2-150.5-74.2-241.4
									c0-91,26.4-176.7,74.2-241.4c49.4-66.9,116-103.7,187.3-103.7s137.9,36.8,187.3,103.7c47.9,64.7,74.2,150.5,74.2,241.4
									c0,91-26.4,176.7-74.2,241.4C401.8,1760.2,335.2,1797.1,263.9,1797.1z M263.9,1141.2c-58.2,0-113.4,31.4-155.5,88.4
									c-43.7,59.1-67.8,138.1-67.8,222.3c0,84.2,24.1,163.2,67.8,222.3c42.1,57,97.4,88.4,155.5,88.4s113.4-31.4,155.5-88.4
									c43.7-59.1,67.8-138.1,67.8-222.3c0-84.2-24.1-163.2-67.8-222.3C377.3,1172.6,322,1141.2,263.9,1141.2z"/>
								<path d="M263.9,1799.4c-72.1,0-139.3-37.2-189.2-104.7C26.5,1629.6,0,1543.4,0,1451.9c0-91.4,26.5-177.7,74.7-242.8
									c49.9-67.5,117.1-104.7,189.2-104.7c72.1,0,139.3,37.2,189.2,104.7c48.2,65.1,74.7,151.4,74.7,242.8
									c0,91.4-26.5,177.7-74.7,242.8C403.2,1762.2,336,1799.4,263.9,1799.4z M263.9,1109.1c-70.6,0-136.5,36.5-185.5,102.8
									c-47.6,64.3-73.8,149.6-73.8,240c0,90.5,26.2,175.7,73.8,240c49,66.3,114.9,102.8,185.5,102.8
									c70.6,0,136.5-36.5,185.5-102.8c47.6-64.3,73.8-149.6,73.8-240c0-90.5-26.2-175.7-73.8-240
									C400.3,1145.6,334.5,1109.1,263.9,1109.1z M263.9,1764.9c-58.9,0-114.8-31.7-157.4-89.3c-44-59.5-68.2-139-68.2-223.7
									c0-84.7,24.2-164.1,68.2-223.7c42.6-57.6,98.5-89.3,157.4-89.3s114.8,31.7,157.4,89.3c44,59.5,68.2,139,68.2,223.7
									s-24.2,164.1-68.2,223.7C378.7,1733.2,322.8,1764.9,263.9,1764.9z M263.9,1143.6c-57.4,0-112,31-153.6,87.4
									c-43.4,58.7-67.3,137.2-67.3,220.9c0,83.7,23.9,162.2,67.3,220.9c41.7,56.4,96.2,87.4,153.6,87.4c57.4,0,112-31,153.6-87.4
									c43.4-58.7,67.3-137.2,67.3-220.9c0-83.7-23.9-162.2-67.3-220.9C375.8,1174.6,321.3,1143.6,263.9,1143.6z"/>
							</g>
							<g>
								<path class="st0" d="M263.9,1523.4c-34.2,0-61-31.4-61-71.5c0-40.1,26.8-71.5,61-71.5c34.2,0,61,31.4,61,71.5
									C324.8,1492,298.1,1523.4,263.9,1523.4z"/>
								<path d="M263.9,1525.8c-35.5,0-63.3-32.4-63.3-73.9c0-41.4,27.8-73.9,63.3-73.9c35.5,0,63.3,32.4,63.3,73.9
									C327.2,1493.3,299.4,1525.8,263.9,1525.8z M263.9,1382.7c-32.9,0-58.6,30.4-58.6,69.2c0,38.8,25.8,69.2,58.6,69.2
									c32.9,0,58.6-30.4,58.6-69.2C322.5,1413.1,296.8,1382.7,263.9,1382.7z"/>
							</g>
						</g>
						<g>
							<g>
								<path class="st0" d="M701.6,1797.1c-50.9,0-90.8-50.2-90.8-114.2s39.9-114.2,90.8-114.2c50.9,0,90.8,50.2,90.8,114.2
									S752.5,1797.1,701.6,1797.1z M701.6,1603.1c-28.5,0-52.6,36.5-52.6,79.8c0,43.2,24.1,79.8,52.6,79.8s52.6-36.5,52.6-79.8
									C754.2,1639.6,730.1,1603.1,701.6,1603.1z"/>
								<path d="M701.6,1799.4c-52.2,0-93.2-51.2-93.2-116.6c0-65.4,40.9-116.6,93.2-116.6c52.2,0,93.2,51.2,93.2,116.6
									C794.7,1748.2,753.8,1799.4,701.6,1799.4z M701.6,1570.9c-49.6,0-88.5,49.2-88.5,111.9s38.9,111.9,88.5,111.9
									c49.6,0,88.5-49.2,88.5-111.9S751.2,1570.9,701.6,1570.9z M701.6,1764.9c-29.8,0-54.9-37.6-54.9-82.1
									c0-44.5,25.1-82.1,54.9-82.1c29.8,0,54.9,37.6,54.9,82.1C756.5,1727.3,731.3,1764.9,701.6,1764.9z M701.6,1605.4
									c-27.3,0-50.3,35.5-50.3,77.4c0,42,23,77.4,50.3,77.4c27.2,0,50.3-35.5,50.3-77.4C751.8,1640.8,728.8,1605.4,701.6,1605.4z"
									/>
							</g>
						</g>
					</g>
				</g>
			</g>
			<g>
				<path d="M1106,1039.3H677.5c-9.7,0-17.6-7.9-17.6-17.6v-7.3h463.7v7.3C1123.6,1031.4,1115.7,1039.3,1106,1039.3z"/>
				<path d="M1123.6,1014.8H858.3l84.3-248.1c5-7.8,13.8-12.5,23.3-12.5h224.3c10.2,0,16.7,9.9,13.4,18.6c-1.3,3.5-2.7,6.9-3.9,10.4
					L1123.6,1014.8z"/>
				
					<ellipse transform="matrix(0.2872 -0.9579 0.9579 0.2872 -106.2919 1629.4578)" class="st0" cx="1041.7" cy="886.1" rx="19.8" ry="17.3"/>
				<path class="st0" d="M1056,1014.9H909.8c-1.3,0-2.3-1-2.3-2.3c0-1.3,1-2.3,2.3-2.3H1056c1.3,0,2.3,1,2.3,2.3
					C1058.3,1013.9,1057.2,1014.9,1056,1014.9z"/>
				<path class="st0" d="M1125.7,1014.9h-21.3c-1.3,0-2.3-1-2.3-2.3c0-1.3,1-2.3,2.3-2.3h21.3c1.3,0,2.3,1,2.3,2.3
					C1128.1,1013.9,1127,1014.9,1125.7,1014.9z"/>
			</g>
			<g>
				<g>
					<path class="st0" d="M1220,1038.9H86.5c-21.1,0-37.5,19.8-35.1,42.5l78.3,742h56.5l-49-696.4c-0.9-12.3,8.1-22.7,19.5-22.7h973
						c17.1,0,30.5,15.7,29.2,34l-48.5,689.4h56.5l79.6-756.8C1248.3,1053.8,1235.9,1038.9,1220,1038.9z"/>
					<path d="M1166.9,1830h-56.5c-0.6,0-1.3-0.3-1.7-0.7c-0.4-0.5-0.7-1.1-0.6-1.7l48.5-689.4c0.6-8.6-2.3-17-7.9-23.1
						c-5.1-5.4-11.8-8.4-18.9-8.4h-973c-4.6,0-8.9,1.9-12.1,5.4c-3.6,3.9-5.5,9.3-5.1,14.9l49,696.4c0,0.6-0.2,1.3-0.6,1.7
						s-1.1,0.7-1.7,0.7h-56.5c-1.2,0-2.2-0.9-2.3-2.1l-78.3-742c-1.3-12.1,2.5-24,10.4-32.7c7.2-8,16.8-12.3,27.1-12.3H1220
						c7.9,0,15.3,3.4,20.9,9.5c6,6.7,8.9,15.9,8,25.1l-79.6,756.8C1169.1,1829.1,1168.1,1830,1166.9,1830z M1112.9,1825.4h51.9
						l79.4-754.7c0.8-8-1.6-15.8-6.8-21.5c-4.6-5.1-10.8-8-17.4-8H86.5c-9,0-17.4,3.8-23.6,10.8c-7,7.8-10.3,18.4-9.2,29.1
						l78.1,739.9h51.9l-48.8-693.9c-0.5-6.8,1.8-13.5,6.3-18.3c4.1-4.4,9.6-6.9,15.5-6.9h973c8.4,0,16.4,3.5,22.3,9.9
						c6.5,7,9.9,16.7,9.2,26.6L1112.9,1825.4z"/>
				</g>
			</g>
		</g>
		<g>
			<g>
				<path d="M262.4,343.7c-0.3,0-0.7-0.1-1-0.2c-1.2-0.5-1.7-1.9-1.1-3.1l7.5-16.3c0.5-1.2,1.9-1.7,3.1-1.1c1.2,0.5,1.7,1.9,1.1,3.1
					l-7.5,16.3C264.2,343.2,263.3,343.7,262.4,343.7z"/>
				<path d="M244.9,381.8c-0.3,0-0.7-0.1-1-0.2c-1.2-0.5-1.7-1.9-1.1-3.1l7.5-16.3c0.5-1.2,1.9-1.7,3.1-1.1c1.2,0.5,1.7,1.9,1.1,3.1
					l-7.5,16.3C246.6,381.3,245.8,381.8,244.9,381.8z"/>
				<path d="M246.6,349.6c-0.3,0-0.7-0.1-1-0.2l-16.3-7.5c-1.2-0.5-1.7-1.9-1.1-3.1c0.5-1.2,1.9-1.7,3.1-1.1l16.3,7.5
					c1.2,0.5,1.7,1.9,1.1,3.1C248.3,349.1,247.4,349.6,246.6,349.6z"/>
				<path d="M284.6,367.2c-0.3,0-0.7-0.1-1-0.2l-16.3-7.5c-1.2-0.5-1.7-1.9-1.1-3.1c0.5-1.2,1.9-1.7,3.1-1.1l16.3,7.5
					c1.2,0.5,1.7,1.9,1.1,3.1C286.4,366.6,285.5,367.2,284.6,367.2z"/>
			</g>
			<g>
				<path d="M1761.1,166.5c-0.2,0-0.5,0-0.7-0.1c-1.2-0.4-1.9-1.7-1.5-2.9l5.3-17.2c0.4-1.2,1.7-1.9,2.9-1.5
					c1.2,0.4,1.9,1.7,1.5,2.9l-5.3,17.2C1763,165.8,1762.1,166.5,1761.1,166.5z"/>
				<path d="M1748.8,206.6c-0.2,0-0.5,0-0.7-0.1c-1.2-0.4-1.9-1.7-1.5-2.9l5.3-17.2c0.4-1.2,1.7-1.9,2.9-1.5
					c1.2,0.4,1.9,1.7,1.5,2.9l-5.3,17.2C1750.7,205.9,1749.8,206.6,1748.8,206.6z"/>
				<path d="M1746.1,174.4c-0.2,0-0.5,0-0.7-0.1l-17.2-5.3c-1.2-0.4-1.9-1.7-1.5-2.9c0.4-1.2,1.7-1.9,2.9-1.5l17.2,5.3
					c1.2,0.4,1.9,1.7,1.5,2.9C1748,173.8,1747.1,174.4,1746.1,174.4z"/>
				<path d="M1786.2,186.7c-0.2,0-0.5,0-0.7-0.1l-17.2-5.3c-1.2-0.4-1.9-1.7-1.5-2.9c0.4-1.2,1.7-1.9,2.9-1.5l17.2,5.3
					c1.2,0.4,1.9,1.7,1.5,2.9C1788.1,186,1787.2,186.7,1786.2,186.7z"/>
			</g>
			<g>
				<path d="M336.2,289.7c-0.5,0-1.1-0.2-1.5-0.6c-1-0.8-1.1-2.3-0.2-3.3c89.3-102.6,176.7-158.6,234.3-187.6
					c62.5-31.4,104.5-38.7,105-38.7c1.3-0.2,2.5,0.6,2.7,1.9c0.2,1.3-0.6,2.5-1.9,2.7c-0.4,0.1-41.9,7.2-103.8,38.4
					c-57.2,28.8-143.9,84.5-232.7,186.4C337.5,289.4,336.9,289.7,336.2,289.7z"/>
				<path d="M349.4,219.7c-0.6,0-1.2-0.2-1.6-0.7c-0.9-0.9-0.9-2.4,0-3.3c81-83,169.1-140,269.5-174c1.2-0.4,2.5,0.2,2.9,1.5
					c0.4,1.2-0.2,2.5-1.5,2.9C519.1,79.9,431.6,136.5,351.1,219C350.6,219.5,350,219.7,349.4,219.7z"/>
			</g>
		</g>
	</g>
</g>
</svg>
