<svg xmlns="http://www.w3.org/2000/svg" width="600" height="600" viewBox="0 0 600 600">
  <defs>
    <style>
      .cls-1 {
        fill: #f7f7f7;
        stroke: #000;
        stroke-width: 1px;
      }

      .cls-1, .cls-2 {
        fill-rule: evenodd;
      }

      .cls-2 {
        fill: #cef0dc;
      }
    </style>
  </defs>
  <path class="cls-1" d="M-106.166-106.166H706.166V706.166H-106.166V-106.166Z"/>
  <path id="Shape" class="cls-2" d="M310.492,196.921L261.438,393.042a38.7,38.7,0,0,1-37.887,30.491H170.124a17.538,17.538,0,0,1-17.217-21.171l49.055-196.121a38.7,38.7,0,0,1,37.887-30.492h53.426A17.538,17.538,0,0,1,310.492,196.921Zm136.15-10.02-20.248,94.32A64.189,64.189,0,0,1,363.546,331.8H320.469a9.238,9.238,0,0,1-9.069-11.151l20.248-94.32a64.188,64.188,0,0,1,62.848-50.58h43.077A9.239,9.239,0,0,1,446.642,186.9Z"/>
</svg>
